<?xml version="1.0" encoding="utf-8"?>
<!-- Generator: Adobe Illustrator 28.2.0, SVG Export Plug-In . SVG Version: 6.00 Build 0)  -->
<svg version="1.1" id="Layer_1" xmlns="http://www.w3.org/2000/svg" xmlns:xlink="http://www.w3.org/1999/xlink" x="0px" y="0px"
	 viewBox="0 0 1000 300" style="enable-background:new 0 0 1000 300;" xml:space="preserve">
<style type="text/css">
	.st0{opacity:0.8;}
	.st1{stroke:#231F20;stroke-miterlimit:10;}
</style>
<g>
	<g>
		<g>
			<g>
				<g class="st0">
					<g>
						<path d="M214.3,122.09c-11.26-0.17-21.48,0.56-31.65,2.42c-15.76,2.64-30.42,4.06-45.94,9.72
							c-7.67,2.77-14.34,6.09-20.39,10.33c-6.43,3.85-12.4,8.9-15.71,15.08c-3.36,6.09-3.45,13.35,0.14,20.01
							c0.24,0.78,1.04,2.2,1.8,3.33c0.9,1.08,1.85,1.82,2.46,1.12c4.26,6.22,10.74,11.76,17.98,16.16
							c7.29,4.45,15.42,7.91,23.99,10.24c7.1,2.12,14.24,5.4,21.72,6.74c12.11,1.9,23.99,5.06,36.2,5.53
							c1.7-0.13,5.39-0.82,6.81-0.69c8.28,1.08,16.56,0.78,24.46,0.04c7.95-0.78,15.52-2.12,22.95-3.76
							c5.87-1.17,10.31-2.46,16.04-3.72c0.33-0.82,1.7-1.04,3.26-1.69c4.26-0.91,29.1-6.05,31.65-5.83
							c0.62,0.04-11.26,3.8-23.18,7.22c-11.92,3.54-23.85,6.05-23.37,6.31c0.62,0.17,8.61-1.3,16.75-3.41
							c8.19-2.2,16.51-4.45,17.93-4.84c-14.05,5.06-25.55,8.86-35.06,11.15c-9.51,2.29-17.03,3.24-22.47,3.89
							c-10.98,1.25-13.96,1.51-11.92,1.56c1.99,0,8.94-0.3,17.65-1.34c8.71-0.99,19.02-3.2,27.68-6.01
							c5.58-1.08,13.06-4.28,23.66-7.35c-6.06,2.42-18.22,8.3-21.34,9.08c-6.77,2.16-10.03,3.16-13.25,4.19
							c-3.31,0.86-6.96,1.73-15.47,2.25c-6.81,0.43-16.18,1.08-25.5,1.69c-9.18,0.65-18.26,0.82-24.27,0.61
							c6.39-0.69,20.91-3.03,29.81-2.9c-9.75-0.65-15.38,0.04-21.1,0.78c-5.73,0.69-11.73,1.47-22,0c-1.94-0.22-4.16-0.35-6.62-0.48
							c-2.27-0.48-4.4-1.04-7.05-1.73c-16.65-3.28-31.7-6.18-46.89-13.79c1.32,0.56,1.75,1.73,3.08,2.42
							c12.92,7.13,25.64,8.99,40.6,12.32c2.89,0.78,7.14,0.3,10.22,0.73c6.25,0.91,11.73,2.33,17.6,3.28
							c-11.88,0.04-25.74-2.29-38.28-5.14c-2.6-0.56-6.01-0.52-8.14-0.69c5.73,1.69,11.54,3.16,17.46,4.24
							c10.36,1.9,22.52,2.42,33.78,2.55c11.26,0.09,21.76-0.3,29.05,0.69c0.43-0.09,0.85-0.13,1.75-0.26
							c0.24,0.09,0.52,0.13,0.85,0.17c2.89-0.09,6.29-0.04,9.51,0.35l-8,0.09c-10.22,1.43-21.48,1.77-33.07,1.08
							c-11.54-0.73-23.23-2.25-34.63-4.06c-5.16-0.56-13.01-3.89-18.03-4.97c-14.71-3.41-29.71-9.68-41.83-19.45
							c-5.49-4.32-10.65-9.21-14.62-15.17c-4.02-5.83-6.81-12.79-7.14-19.97c-0.09-3.59,0.38-7.13,1.32-10.5
							c1.09-3.37,2.56-6.53,4.45-9.38c3.83-5.71,8.8-10.29,14.19-14.09c10.88-7.48,23.14-12.14,35.53-15.47
							c12.4-3.28,25.08-5.1,37.62-5.92c1.14-0.22,2.32-0.39,3.45-0.56c-0.52-0.09-1.04-0.17-1.56-0.26c1.09,0,2.22,0,3.31,0
							c6.39-0.91,12.73-1.3,19.07-0.82c2.6,0.39-4.49,0.39-6.39,1.17c1.42,0,2.84,0,2.84,0s-0.24,0.39-0.47,0.78
							c1.09-0.26,1.75,0.13,2.51,0.35c-13.77,0.99-27.49,3.2-40.88,6.44c1.8,0.52,5.73-0.52,7.67-0.78c4.4-1.12,8.85-2.2,13.06-2.46
							c11.5-1.99,23.8-1.17,34.97-0.95c2.08,0.26,4.12,0.56,6.15,0.95C223.67,121.22,218.42,122.35,214.3,122.09z M98.33,194.44
							c-2.37-3.24-4.21-6.7-5.54-10.42c-0.52-1.3-1.18-2.46-1.56-3.8c-0.57-1.64-1.09-3.28-1.7-5.14c-0.9-7.3,1.14-14.52,5.2-20.31
							c-4.78,5.32-8.23,13.35-5.91,22.78c-1.75-5.96-1.28-12.14,0.9-17.46c2.08-5.36,5.77-9.72,9.79-13.35
							c8.23-7.22,18.22-11.58,28.53-15.21c6.1-2.51,12.44-4.62,19.02-6.57c4.64-1.43,9.18-2.77,13.72-4.06
							c-14.71,2.46-29.24,6.18-42.77,12.53c-6.77,3.16-13.15,7.09-18.78,12.1c-5.49,5.06-10.27,11.41-11.92,19.1
							c-1.8,7.61-0.33,15.99,3.64,22.99c3.83,7.09,9.56,13.01,15.85,17.98c12.68,9.98,27.73,16.51,43.2,21.22
							c-9.84-3.67-19.21-7.87-28.06-13.01C113.14,208.61,104.72,202.52,98.33,194.44z M104.58,198.76
							c6.15,5.23,13.06,9.42,20.25,12.75c19.3,9.68,42.91,14.78,57.06,14.26c-18.83-1.86-38.51-5.71-57.06-14.26
							c8.71,4.19,10.08,4.45,6.1,2.77c-3.88-1.82-13.2-5.71-23.56-13.48C106.8,200.53,105.81,199.75,104.58,198.76z"/>
						<path d="M147.45,119.93c8.85-1.43,17.84-2.42,26.69-2.72c-3.5-0.52-6.62-0.95-10.74-0.95c-10.98,0.43-22.76,3.67-33.78,7.09
							c-7.95,2.38-15.85,5.62-23.33,10.11c-7.43,4.49-14.57,10.37-19.54,18.54c-5.06,8.04-6.81,18.89-3.74,28.53
							c2.98,9.68,9.56,17.46,16.75,23.6c1.37,1.3,4.59,3.93,7.33,5.36c-9.42-6.96-18.26-15.73-22.33-27.36
							c-1.99-5.75-2.6-12.02-1.37-17.89c1.18-5.88,3.93-11.24,7.43-15.69c7.1-8.95,16.56-14.82,26.26-19.28
							C126.82,124.85,137.04,121.92,147.45,119.93z"/>
						<path d="M161.26,232.99c6.62,1.12,13.25,1.99,19.54,2.94c-5.58-1.6-13.3-3.11-19.49-4.54c-8.75-1.82-17.46-4.11-25.83-7.13
							C143.62,227.89,152.18,230.87,161.26,232.99z"/>
						<path d="M107.09,209.52c1.56,1.08,3.08,2.2,4.68,3.2c7.29,4.75,15.33,8.56,23.7,11.54c-8.56-3.8-16.65-8.47-24.37-13.92
							C110.64,211.03,109.03,210.52,107.09,209.52z"/>
					</g>
				</g>
			</g>
		</g>
	</g>
</g>
<g>
	<g>
		<g>
			<g>
				<g class="st0">
					<g>
						<path class="st1" d="M228.56,121.94c-5.06-1.02-9.59-1.11-14.26-0.51c-7.26,0.51-13.79-3.32-21.44-4.51
							c-3.76-0.77-7.26-1.02-10.98-1.19c-7.43-2.3-15.56-3.92-23.99-4c-0.91-0.34-3.59-1.28-3.33,2.04
							c-8.17-2.13-16.08-4.51-23.99-2.89c-3.33,0.34-6.79-2.38-10.11-2.04c-5.4,1.11-10.72-2.21-15.99-1.87
							c-0.73,0.51-2.33,2.21-2.94,1.96c-7.26-3.32-14,1.87-20.88,4c-2.68,0.6-4.8,1.36-7.39,1.19c-0.22,1.45-0.86,1.19-1.6,1.7
							c-1.94,0.09-12.88-3.49-13.87-5.36c-0.52-0.94,21.48-1.7,21.09-3.32c-0.52-0.94-14.31,0.17-15.52-0.26
							c51.56-16.51,26.84-11.66,11.15-5.7c-2.46-0.26-5.92,2.21-10.68,2.38c2.81-1.28,8.56-6.38,9.9-6.64
							c6.27-2.3,5.27-4.34,12.4-4.09c5.83,0.17,15.9-4.09,20.92-5.11c-2.59,2.55-8.69,8.09-12.49,7.49
							c8.3,2.89,9.42-6.81,18.11-6.04c0.82,0,1.73-0.34,2.77-0.85c0.95,0.34,1.86,0.68,3.03,1.02c7.13,0.26,13.4-2.04,20.4-1.11
							c-0.61,0.09-0.99-1.53-1.6-1.79c-6.05-2.89-11.19,0.6-17.59-0.17c-1.21-0.43-2.94,1.96-4.24,1.96
							c-2.64,0.17-4.97-1.45-7.43-2.3c4.88-2.04,10.68-1.53,15.99-1.96c1.08-0.26,2.42-1.87,3.28-2.72
							c-2.42-0.17-4.88-0.26-7.35-0.17c-8.6,0.77-19.84,8-26.02,3.66c-0.17,0.09-0.35,0.26-0.73,0.51
							c-0.09-0.17-0.22-0.26-0.35-0.34c-1.21,0.09-2.64-0.17-3.93-1.19l3.33,0.34c8.69-5.11,18.58-2.38,28.01-4.34
							c2.07-0.77,5.53,1.96,7.65,1.19c6.14-1.62,12.53-0.85,18.71,1.28c22.26,6.38,44.39,13.36,66.08,22.98
							c0.52,0,1.04-0.09,1.51-0.09l-0.65-0.94c0.48,0.34,0.95,0.6,1.43,0.94c2.81-0.09,5.53,0.43,8.25,2.21
							c1.12,1.11-1.99,0.09-2.81,1.28c0.61,0.26,1.25,0.43,1.25,0.43s-0.13,0.68-0.22,1.45c0.48-0.34,0.73,0.51,1.08,1.11
							c-6.05,0-12.14,0-18.28,0c0.69,1.96,2.51,1.62,3.37,1.87c2.03-0.43,4.06-0.85,5.92-0.17c5.14-0.43,10.5,3.06,15.47,4.09
							c0.91,0.6,1.82,1.19,2.72,2.04C232.75,120.41,230.42,122.62,228.56,121.94z M152.54,91.72c1.69,0.94,3.33,2.21,5.06,3.4
							c0.61,0.17,1.21,0.34,1.82,0.43c0.73,0.26,1.56,0.17,2.38-0.09c3.2,1.19,6.44,2.47,9.64,3.75c-3.2-2.81-6.57-5.36-10.63-6.21
							c10.5,0.6,19.49,7.66,29.17,12.26c2.94,0.68,5.88,1.28,8.9,1.53c2.12,0.09,4.24-0.09,6.31-0.43
							c-26.02-8.17-51.52-21.88-78.1-24.34C135.64,85.68,143.93,87.98,152.54,91.72z M149.42,93.68c-3.46-0.43-6.83-0.51-10.2-0.43
							c-9.12-0.68-19.1-1.28-25.02,3.4c8.04-1.7,16.38-3.23,25.02-3.4c-8.21-0.68-2.29,0.26,8.73,0.6
							C148.21,93.68,148.73,93.68,149.42,93.68z"/>
						<path class="st1" d="M199.82,97.76c3.89,2.38,7.48,4.51,11.41,6.89c-1.43-2.21-2.72-4.17-4.41-5.96
							c-4.58-3.83-9.72-4.17-14.57-6.64c-13.83-7.06-28.22-10.64-43-12.09c-0.73-0.26-2.33-0.6-3.54,0
							C164.33,84.4,181.88,88.57,199.82,97.76z"/>
						<path class="st1" d="M121.94,75.72c-2.72,0.6-5.4,1.11-8,0.94c2.33,1.62,5.53,1.96,8.13,2.13c3.63-0.26,7.26-0.43,10.85-0.43
							C129.33,77,125.7,75.97,121.94,75.72z"/>
						<path class="st1" d="M145.71,80.06c-0.73-0.17-1.47-0.34-2.25-0.51c-3.46-0.85-6.96-1.11-10.55-1.19
							c3.72,1.45,7.65,2.98,11.32,4.43C144.24,81.25,144.89,80.4,145.71,80.06z"/>
					</g>
				</g>
			</g>
		</g>
	</g>
</g>
<g>
	<g>
		<g>
			<g>
				<g class="st0">
					<g>
						<path class="st1" d="M177.13,125.39c-5.06-1.2-9.59-1.3-14.26-0.6c-7.26,0.6-13.79-3.89-21.44-5.29
							c-3.76-0.9-7.26-1.2-10.98-1.4c-7.43-2.69-15.56-4.59-23.99-4.69c-0.91-0.4-3.59-1.5-3.33,2.39
							c-8.17-2.49-16.08-5.29-23.99-3.39c-3.33,0.4-6.79-2.79-10.11-2.39c-5.4,1.3-10.72-2.59-15.99-2.19
							c-0.73,0.6-2.33,2.59-2.94,2.29c-7.26-3.89-14,2.19-20.88,4.69c-2.68,0.7-4.8,1.6-7.39,1.4c-0.22,1.7-0.86,1.4-1.6,2
							c-1.94,0.1-12.88-4.09-13.87-6.29c-0.52-1.1,21.48-2,21.09-3.89c-0.52-1.1-14.31,0.2-15.52-0.3
							c51.56-19.36,26.84-13.67,11.15-6.68c-2.46-0.3-5.92,2.59-10.68,2.79c2.81-1.5,8.56-7.48,9.9-7.78
							c6.27-2.69,5.27-5.09,12.4-4.79c5.83,0.2,15.9-4.79,20.92-5.99c-2.59,2.99-8.69,9.48-12.49,8.78
							c8.3,3.39,9.42-7.98,18.11-7.08c0.82,0,1.73-0.4,2.77-1c0.95,0.4,1.86,0.8,3.03,1.2c7.13,0.3,13.4-2.39,20.4-1.3
							c-0.61,0.1-0.99-1.8-1.6-2.1c-6.05-3.39-11.19,0.7-17.59-0.2c-1.21-0.5-2.94,2.29-4.24,2.29c-2.64,0.2-4.97-1.7-7.43-2.69
							c4.88-2.39,10.68-1.8,15.99-2.29c1.08-0.3,2.42-2.19,3.28-3.19c-2.42-0.2-4.88-0.3-7.35-0.2c-8.6,0.9-19.84,9.38-26.02,4.29
							c-0.17,0.1-0.35,0.3-0.73,0.6c-0.09-0.2-0.22-0.3-0.35-0.4c-1.21,0.1-2.64-0.2-3.93-1.4l3.33,0.4
							c8.69-5.99,18.58-2.79,28.01-5.09c2.07-0.9,5.53,2.29,7.65,1.4c6.14-1.9,12.53-1,18.71,1.5
							c22.26,7.48,44.39,15.66,66.08,26.94c0.52,0,1.04-0.1,1.51-0.1l-0.65-1.1c0.48,0.4,0.95,0.7,1.43,1.1
							c2.81-0.1,5.53,0.5,8.26,2.59c1.12,1.3-1.99,0.1-2.81,1.5c0.61,0.3,1.25,0.5,1.25,0.5s-0.13,0.8-0.22,1.7
							c0.48-0.4,0.73,0.6,1.08,1.3c-6.05,0-12.14,0-18.28,0c0.69,2.29,2.51,1.9,3.37,2.19c2.03-0.5,4.06-1,5.92-0.2
							c5.14-0.5,10.5,3.59,15.47,4.79c0.91,0.7,1.82,1.4,2.72,2.39C181.32,123.5,178.99,126.09,177.13,125.39z M101.1,89.87
							c1.69,1.1,3.33,2.59,5.06,3.99c0.61,0.2,1.21,0.4,1.82,0.5c0.73,0.3,1.56,0.2,2.38-0.1c3.2,1.4,6.44,2.89,9.64,4.39
							c-3.2-3.29-6.57-6.29-10.63-7.28c10.5,0.7,19.49,8.98,29.17,14.37c2.94,0.8,5.88,1.5,8.9,1.8c2.12,0.1,4.24-0.1,6.31-0.5
							c-26.02-9.58-51.52-25.64-78.1-28.53C84.2,82.89,92.5,85.58,101.1,89.87z M97.99,92.27c-3.46-0.5-6.83-0.6-10.2-0.5
							c-9.12-0.8-19.1-1.5-25.02,3.99c8.04-2,16.38-3.79,25.02-3.99c-8.21-0.8-2.29,0.3,8.73,0.7
							C96.78,92.27,97.3,92.27,97.99,92.27z"/>
						<path class="st1" d="M148.39,96.96c3.89,2.79,7.48,5.29,11.41,8.08c-1.43-2.59-2.72-4.89-4.41-6.98
							c-4.58-4.49-9.72-4.89-14.57-7.78c-13.83-8.28-28.22-12.47-43-14.17c-0.73-0.3-2.33-0.7-3.54,0
							C112.9,81.29,130.45,86.28,148.39,96.96z"/>
						<path class="st1" d="M70.5,71.22c-2.72,0.7-5.4,1.3-8,1.1c2.33,1.9,5.53,2.29,8.13,2.49c3.63-0.3,7.26-0.5,10.85-0.5
							C77.94,72.71,74.26,71.42,70.5,71.22z"/>
						<path class="st1" d="M94.27,76.21c-0.73-0.2-1.47-0.4-2.25-0.6c-3.46-1-6.96-1.3-10.55-1.4c3.72,1.7,7.65,3.49,11.32,5.19
							C92.81,77.6,93.45,76.71,94.27,76.21z"/>
					</g>
				</g>
			</g>
		</g>
	</g>
</g>
<g>
	<g>
		<g>
			<g>
				<g class="st0">
					<g>
						<path d="M392.19,153.52c5.36-1.89,9.12-2.19,14-1.99c1.21,0.1,2.42,0.2,3.93,0.5c1.25,0.2,3.16,0.79,4.84,1.49
							c0.78,0.3,2.2,1.09,3.24,1.74c0.56,0.35,1.08,0.75,1.64,1.09c0.69,0.6,1.47,1.24,2.12,1.99c1.38,1.54,2.51,2.73,3.8,5.22
							c0.61,1.14,1.12,2.38,1.56,3.63c0.22,0.65,0.39,1.24,0.56,1.89c0.17,0.7,0.09,0.45,0.17,0.7c0.95,4.67,1.21,8.05,1.51,11.57
							c0.22,3.48,0.35,6.86,0.26,10.38c0,0.89-0.09,1.89-0.17,2.78c-0.04,0.94-0.13,1.74-0.35,3.38c-0.43,2.78-0.86,5.36-1.6,7.9
							c-1.34,5.12-3.76,9.54-6.87,13.16c-1.86,1.39-3.54,3.08-5.53,4.17c-1.94,1.09-3.93,2.19-5.92,3.28
							c-0.99,0.45-2.12,0.79-3.24,1.09l-1.64,0.5l-1.21,0.3c-1.64,0.45-2.98,0.5-4.45,0.75c-5.83,0.79-11.15,0.75-16.73,0.89
							c-4.06-0.05-7.95-0.15-11.84-0.2c-6.14-0.15-12.23-0.35-18.5-0.75c-6.66-0.94-13.01-2.04-19.28-3.08
							c-3.11-0.5-6.27-1.04-9.42-1.54c-0.56-0.99-1.51-2.09-3.98-3.43c6.57-7.85,13.05-15.95,18.02-22.7
							c2.59-3.43,3.98-6.51,5.14-9.69c0.3-0.79,0.52-1.64,0.73-2.38l0.35-1.44c0.17-0.84,0.39-1.69,0.52-2.53
							c0.61-1.54,1.64-6.46-0.91-6.16c1.12-7.2,0.73-14.8-1.6-21.81c-2.33-6.95-6.61-13.16-12.19-16.99
							c-4.37-3.38-8.82-8.35-14.48-9.54c-4.49-0.7-8.95-1.44-13.57-1.44c-4.58,0-9.29,0.79-13.4,3.23
							c-1.04,0.99-2.77,3.78-3.72,4.27c-5.92,2.53-10.29,8.1-12.66,14.26c-2.46,6.21-3.11,12.82-3.16,18.98
							c-0.17,4.87,0.43,8.59,0.86,13.06c1.12,0.2,1.12,1.29,1.73,2.43c0.3,1.59,0.86,7.05,2.51,12.32
							c1.51,5.27,4.15,10.08,4.24,11.33c0.09,0.7-6.83-6.26-10.2-16.09c-3.72-9.64-3.24-20.66-3.8-20.27
							c-0.43,0.4-0.91,7.8,0.69,14.95c1.43,7.25,4.93,13.76,5.36,14.85c-7.35-10.13-9.85-21.81-10.16-31.1
							c-0.26-9.44,1.56-16.74,3.2-21.86c1.73-5.17,3.33-8.25,4.11-9.93c0.82-1.69,0.86-1.99,0.26-1.24
							c-1.17,1.49-4.93,7.45-7.22,15.9c-2.38,8.44-2.68,19.12-0.73,27.67c0.3,5.46,3.33,12.72,7.91,21.26
							c-1.77-2.29-4.62-5.81-6.87-9.69c-2.29-3.82-3.85-7.85-4.11-9.39c-1.6-7.25-2.07-10.63-2.38-14.21
							c-0.17-3.58-0.22-7.65,2.68-16.05c2.38-6.81,6.35-15.95,12.23-23.5c5.75-7.65,13.31-13.31,18.8-15.85
							c-2.59,2.19-6.66,5.96-10.24,10.38c-3.67,4.32-6.92,9.14-9.72,12.42c6.74-6.51,10.11-10.53,14.09-14.95
							c3.93-4.17,8.82-8.79,18.89-9.79c1.86-0.2,3.98-0.65,6.35-1.04c2.25,0.35,4.32,0.79,6.92,1.54c8.13,1.39,15.56,4.22,22.3,8.64
							c6.7,4.42,12.71,10.58,17.03,18.63c-0.86-1.24-0.35-2.98-1.12-4.42c-3.59-7.35-8.95-12.67-14.91-16.54
							c-6.01-3.87-12.66-6.41-20.1-8.4c-2.85-1.09-7.13,0.55-10.07,0.55c-6.09,0.05-11.71-0.45-17.63,0.79
							c10.93-5.81,26.02-5.22,38.25,0.1c2.59,0.89,6.09,1.29,8.34,1.79c-5.4-3.58-11.37-6.16-17.55-7.55
							c-10.89-2.29-23.77,0.55-33.93,6.56c-10.33,5.91-17.76,14.21-23.81,19.62c-0.22,0.45-0.43,0.94-0.82,1.89
							c-0.26,0.1-0.52,0.35-0.73,0.6c-1.73,2.73-3.8,5.96-6.01,8.79c1.38-2.73,2.85-5.36,4.54-7.85
							c4.67-11.33,14.09-21.01,25.37-26.33c11.37-5.41,24.12-6.46,36.22-4.37c5.62,0.55,13.31,6.41,18.07,9.04
							c7.13,3.92,13.57,10.03,18.45,17.54c4.88,7.5,8.13,16.29,9.42,25.19c1.86,10.78,1.34,21.71-1.12,31.84
							c-0.3,1.29-0.69,2.48-1.04,3.73c-0.17,0.6-0.39,1.24-0.61,1.84l-0.52,0.75c-0.48,0.89-0.99,1.89-1.64,2.88
							c-1.25,2.04-2.77,4.22-4.71,6.56c-0.82,0.99-1.73,1.99-2.72,3.03l-0.73,0.75l-0.39,0.4c-0.13,0.15,0.09,0.1,0.13,0.15
							l1.04,0.45c1.47,0.6,3.11,1.19,4.97,1.79c3.85,1.14,8.13,2.24,14.18,3.13c6.31,0.89,12.66,1.49,19.1,1.54
							c1.6,0.05,3.2,0,4.84-0.15c1.64-0.1,3.24-0.2,4.88-0.55c1.77-0.25,3.5-0.7,5.19-1.44c1.82-0.5,3.37-1.64,5.01-2.73
							c3.5-3.08,5.06-8,6.35-13.16c0.13-1.44,0.17-2.58,0.22-3.87c-0.3,0.55-0.56,1.04-0.86,1.54c0.3-1.14,0.61-2.33,0.91-3.48
							c0.09-3.48,0.09-6.86,0-10.38c-0.09-1.79-0.09-3.53-0.26-5.51c-0.04-0.25,0-0.45-0.09-0.79c-0.13-0.6-0.35-1.24-0.56-1.84
							c-0.48-1.29-1.08-2.19-1.73-2.93c-0.73-0.89-1.34-1.44-1.94-1.84c-0.65-0.5-1.3-0.94-1.82-1.19c-0.86-0.55-0.91-0.7-0.39-0.6
							c0.26,0.05,0.65,0.15,1.17,0.35c0.56,0.25,1.3,0.65,2.03,1.14c0.69,0.4,1.86,1.59,2.64,2.58c0.82,1.04,1.73,3.38,1.94,4.27
							c0.3,1.09,0.61,2.14,0.91,2.63c-0.04-0.84-0.17-1.84-0.22-2.53c0-0.2-0.04-0.35-0.04-0.5c-0.04-0.25-0.17-0.75-0.26-0.99
							c-0.22-0.6-0.3-0.94-0.3-0.94c0-0.05,0.95,0.89,1.69,1.64c-0.65-1.94-1.56-4.22-2.29-5.32c-0.69-1.19-1.56-2.48-2.33-3.33
							c1.82,1.44,3.8,3.53,5.01,7.1l0.39,1.24l0.09,0.4l0.13,0.75l0.26,1.49c0.3,1.89,0.52,3.68,0.65,5.36
							c0.3,3.48,0.35,6.81,0.26,10.23c-0.04,1.69-0.17,3.43-0.3,5.22c-0.22,2.24-0.61,4.52-1.04,6.71
							c-0.95,4.37-2.59,8.59-5.27,11.82c-1.21,1.04-2.42,2.09-3.63,3.18l-4.06,2.48c1.12,0.15,2.72-0.45,4.41-1.24
							c1.6-0.89,3.07-2.38,4.32-3.33c0.35-0.3,0.61-0.7,0.82-0.99c1.99-2.98,3.24-6.41,4.06-9.93c0.43-1.74,0.73-3.53,1.08-5.27
							c0.26-1.59,0.52-3.13,0.78-4.72c0.22-3.63,0.39-7.1,0.43-10.68c0.04-3.63,0.13-7.15-0.43-11.72l-0.04-0.4
							c-0.09-0.35-0.26-0.99-0.39-1.49c-0.3-1.04-0.73-2.09-1.21-3.08c-0.99-2.14-1.94-3.08-3.11-4.42
							c-1.3-1.39-2.07-1.84-3.07-2.53c-0.48-0.3-0.95-0.6-1.47-0.89c-0.48-0.25-0.78-0.35-1.17-0.55c-3.28-1.44-5.4-1.64-7.74-1.99
							c-4.41-0.3-8.08-0.1-13.01,1.94c-0.86,0.25-2.16,0.89-3.2,1.44c-0.48,0.2-1.34,0.84-1.99,1.34c-0.73,0.6-1.34,1.04-2.12,1.84
							c-0.95,1.04-1.86,2.29-2.64,3.53c-0.69,0.99-1.64,3.23-2.2,5.46c-0.56,2.24-0.82,4.47-0.65,6.61
							c0.13,2.19,0.56,4.47,1.25,6.46c0.04,0.7-0.17,0.94-0.48,0.89c-0.17-0.05-0.35-0.15-0.56-0.3c-0.82-1.74-1.86-5.12-2.03-8.64
							c-0.09-1.74,0.09-3.87,0.52-5.96c0.39-2.04,1.3-4.57,1.9-5.66c0.69-1.39,1.56-2.83,2.55-4.12c0.56-0.75,0.86-1.09,1.21-1.44
							l1.08-1.14c0.69-0.7,1.69-1.54,2.29-1.94c0.61-0.45,1.21-0.84,1.86-1.19C390.29,154.27,391.15,153.97,392.19,153.52z
							 M359.77,171.85c-0.61,4.37-1.82,8.4-3.37,12.32c-0.3,1.44-0.73,2.83-1.12,4.22c-0.61,1.79-0.91,3.08-1.21,4.77
							c-2.16,4.47-5.1,9.29-8.99,14.21c-1.21,1.54-2.72,3.23-4.15,4.82c2.03-1.94,3.72-3.68,5.32-5.46
							c4.97-5.46,8.38-10.08,10.24-15.05c-1.43,4.67-3.93,9.04-7.61,13.66c-1.25,1.54-2.59,3.13-4.15,4.67l-1.17,1.19
							c0.09,0.2,0.48,0.25,0.73,0.4l1.69,0.7c2.29,0.94,4.88,1.94,7.87,2.88c2.98,0.94,6.35,1.94,10.2,2.78l6.01,1.19l5.4,0.99
							c6.01,0.3,12.19,0.35,18.67-0.6c2.29-0.55,4.54-0.89,6.83-1.79c1.08-0.45,2.64-0.99,3.85-1.54c1.25-0.7,2.42-1.54,3.59-2.29
							c-3.63,1.99-7.82,2.83-10.85,3.13c-3.28,0.4-6.44,0.4-9.59,0.45c-6.27-0.2-12.36-0.84-18.45-1.79
							c-6.31-0.94-11.8-2.14-16.34-3.43c-2.29-0.65-4.32-1.34-6.14-1.99l-1.34-0.55c0.43-0.55,1.17-1.24,1.73-1.79
							c1.12-1.24,2.2-2.43,3.2-3.68c2.29-2.78,4.15-5.46,5.66-8c0.73-1.24,1.43-2.48,2.03-3.63c0.3-0.6,0.56-1.09,0.82-1.74
							c0.39-0.99,0.73-2.14,1.04-3.23c2.59-8.74,3.54-18.38,2.51-27.97c-1.94-19.32-12.4-38.05-28.14-48.28
							C352.47,125.95,362.15,149.5,359.77,171.85z M357.66,164.15c-0.91-8.49-3.59-16.69-7.65-23.69
							c-5.19-9.79-13.4-18.08-22.3-22.3c-8.86-4.37-17.94-4.52-23.94-2.14c8.3-1.09,17.2,0.2,25.37,4.37
							c8.21,4.12,15.6,11.08,20.83,20.07c-2.38-4.37-4.11-6.56-4.71-7.35s-0.17-0.2,1.08,1.59c2.38,3.58,8.08,12.42,10.59,25.88
							C357.18,161.17,357.4,162.51,357.66,164.15z"/>
						<path d="M394.74,211.34c4.84,0.3,10.42,0.05,15.6-3.33c2.68-1.99,4.28-5.27,5.71-8.74c-2.25,3.08-4.24,5.36-7.39,6.9
							c-0.26,0.1-0.52,0.15-0.82,0.25c-2.25,1.14-4.71,1.44-6.87,1.84c-1.08,0.1-2.2,0.25-3.37,0.45l-3.59,0.25
							c-4.75,0.25-9.64,0.25-14.39-0.55l-5.58-0.94l-2.81-0.5c-1.04-0.15-1.64-0.35-2.2-0.55c-2.33-0.75-4.15-1.44-5.66-2.14
							s-2.68-1.34-3.63-1.99l-0.65-0.45l-0.3-0.25c-0.04-0.05-0.13-0.05-0.09-0.15l0.3-0.3c0.86-0.79,1.6-1.59,2.25-2.33
							c1.08-1.24,1.99-2.33,2.68-3.38c0.35-0.5,0.65-0.99,0.91-1.44l0.39-0.65c0.04-0.15,0.09-0.1,0.22-0.6l0.48-1.74
							c2.42-9.34,3.11-19.27,1.94-29.16c-0.09-2.19-0.78-7-2.16-10.28c2.46,11.57,2.42,23.35,0,34.23c-0.3,1.34-0.61,2.73-0.99,4.02
							c-0.3,1.24-0.86,3.08-0.99,3.03c-0.39,0.7-0.82,1.44-1.3,2.19c-0.99,1.54-2.25,3.33-3.89,5.17c-0.56,0.65-1.12,1.29-1.77,1.94
							l-0.95,0.99c-0.13,0.15-0.39,0.35-0.48,0.5l0.3,0.15c0.78,0.45,1.69,0.89,2.72,1.34c2.03,0.89,4.58,1.79,7.74,2.68l2.55,0.65
							l1.38,0.35l1.86,0.3c2.51,0.4,5.06,0.79,7.56,1.09C384.5,210.8,389.55,211.29,394.74,211.34z"/>
						<path d="M323.99,100.57c-7.26-1.94-14.57-2.24-21.48-2.04c6.35,0.99,14.74,2.24,21.22,4.72c9.25,2.83,17.94,8.3,24.98,15.6
							C342.31,110.75,333.89,104,323.99,100.57z"/>
						<path d="M365.7,151.58c-0.48-2.14-1.04-4.27-1.69-6.46c-2.98-9.79-8.3-19.03-15.34-26.28c6.7,8.64,11.24,18.83,13.74,29.46
							C363.53,147.76,364.7,149.25,365.7,151.58z"/>
					</g>
				</g>
			</g>
		</g>
	</g>
</g>
<g>
	<g>
		<g>
			<g>
				<g class="st0">
					<g>
						<path d="M488.54,259.58c-0.27-7.06-1.13-13.37-2.59-19.8c-1.86-9.96-0.27-19.42-0.93-30.08c-0.2-5.3-0.73-10.15-1.33-15.26
							c0.27-10.53-0.2-21.95-1.93-33.61c0.07-1.26,0.2-5.05-2.26-4.35c0-2.9-0.07-5.74-0.07-8.58c-0.07-1.64-0.07-3.22-0.13-4.79
							c0.07-1.51,0.13-3.03,0.13-4.48c0.2-5.68,0.13-11.29-0.67-16.9c-0.4-4.73,1.66-9.65,1.46-14.32c-0.86-7.69,2-15.14,2.13-22.64
							c-0.33-1.07-1.46-3.41-1.26-4.29c3.33-10.15,0.4-20.05,0.93-30.52c0.4-4.04,0.67-7.32,2.06-11.23
							c-0.93-0.69-0.53-1.58-0.4-2.84c0.6-1.51,2.99-6.37,6.85-10.91c1.06-1.14,2.13-2.27,3.13-3.22c1.13-1.01,2.33-1.89,3.39-2.65
							c2.26-1.51,4.26-2.27,4.86-2.33c0.47,0-2.2,1.7-4.66,4.73c-2.66,2.96-4.99,7.13-6.52,11.16c-3.26,8.07-4.26,15.89-3.66,15.77
							c0.47-0.32,1.6-5.42,3.46-10.66c1.8-5.3,4.79-10.72,5.72-11.48c-4.59,9.9-4.66,17.47-5.12,23.59c-0.27,6.12,0,10.66,0.2,14
							c0.53,6.62,1,8.39,1.13,7.25c0.33-2.33-0.27-16.4,0.8-27.75c1.26-3.22,0.8-8.7,4.72-15.14c-1.93,4.35-1,13.24-1.2,15.01
							c-0.6,8.77,1.26,7.69-0.67,17.22c-1.53,7.88,0.67,21.95,1.2,28.76c-1.8-3.59-5.59-12.23-4.52-17.53
							c-3.39,11.35,4.12,13.37,3.13,25.16c0,1.14,0.2,2.4,0.6,3.78c-0.27,1.32-0.53,2.59-0.86,4.16c-0.27,9.84,1.73,18.41,1.4,28.13
							c-0.13-0.82,1.13-1.39,1.26-2.27c1.93-8.39-0.93-15.39-0.33-24.15c0.33-1.7-1.53-4.04-1.46-5.8
							c-0.07-3.66,1.33-6.81,2.13-10.15c1.26,6.75,0.73,14.63,1.13,21.88c0.2,1.51,1.46,3.28,2.2,4.48
							c0.07-3.34,0.07-6.68,0.13-10.03c-0.6-11.6-5.39-27.31-1.06-35.32c-0.07-0.25-0.13-0.5-0.27-1.01
							c0.13-0.13,0.27-0.25,0.33-0.44c0.13-1.58,0.53-3.47,1.6-5.11l-0.8,4.35c2.59,11.79-0.13,25.04,1.33,37.9
							c0.6,2.84-1.53,7.57-0.86,10.41c0.73,4.16,1,8.45,1,12.74c0,2.14-0.13,4.29-0.27,6.43c-0.07,1.01-0.2,2.08-0.27,3.15
							c-0.07,0.5-0.13,1.14-0.2,1.45c-0.07,0.25-0.2,0.06-0.2,0.82c-0.27,31.47-1.13,62.81-4.06,93.84c0.13,0.69,0.27,1.39,0.4,2.08
							l0.6-1.01c-0.13,0.69-0.27,1.39-0.47,2.08c0.6,3.85,0.8,7.69,0,11.67c-0.67,1.64-0.47-2.71-1.6-3.78
							c-0.07,0.88-0.07,1.77-0.07,1.77s-0.6-0.06-1.13-0.19c0.33,0.63-0.27,1.07-0.6,1.64c-1.26-8.39-2.53-16.78-3.79-25.29
							c-1.33,1.2-0.73,3.66-0.8,4.86c0.73,2.77,1.46,5.55,1.4,8.14c1.4,7.06-0.2,14.82,0.07,21.82c-0.27,1.32-0.53,2.65-1,3.97
							C490.6,265.19,488.47,262.23,488.54,259.58z M496.19,151.24c-0.4,2.46-1,4.86-1.6,7.32c0,0.82,0,1.7,0,2.52
							c-0.07,1.07,0.13,2.14,0.53,3.28c-0.27,4.54-0.6,9.14-0.86,13.75c1.53-4.73,2.79-9.65,2.59-15.39
							c1.66,14.57-1.86,27.75-3.39,41.62c0.07,4.1,0.27,8.26,0.67,12.49c0.33,2.96,0.93,5.86,1.6,8.64
							c0.47-18.41,2-36.83,2.99-55.24c0.53-9.21,0.86-18.41,0.86-27.69c0.33-4.35,0.67-8.64,1-12.8c0.33-4.54,0.53-9.08,0.73-13.62
							c-1.33,5.86-2.26,11.73-3.13,17.53l-0.67,4.41c-0.2,1.32-0.4,3.34-0.67,3.91C496.65,145.06,496.39,148.08,496.19,151.24z
							 M493.99,147.07c-0.13-1.2-0.2-2.4-0.33-3.59c-0.2-1.32-0.13-1.89-0.2-3.22c-0.13-2.33-0.27-4.67-0.33-7
							c-0.07-12.68,0.33-26.42-3.13-34.75c1.06,11.23,2.39,22.77,3.13,34.75c0-5.68-0.07-6.5-0.13-3.91c0.07,2.4-0.27,8.7,0.6,15.77
							C493.73,145.43,493.86,146.19,493.99,147.07z"/>
						<path d="M501.31,217.26c-1,5.61-1.93,10.85-2.99,16.52c1.4-2.21,2.73-4.16,3.66-6.68c2.06-6.75,1.2-13.94,2.06-20.81
							c2.66-19.87,2.39-40.17,0.4-60.73c0-0.5,0-1.32-0.07-2.21c-0.07-0.44-0.13-0.88-0.2-1.39l-0.2-0.63l-0.13-0.13
							c0.07,6.37,0.13,12.61,0.2,18.86c0.07,6.43,0.07,12.74-0.07,19.11C503.77,191.79,503.04,204.4,501.31,217.26z"/>
						<path d="M506.23,109.3c-0.4-3.66-0.86-7.32-0.6-10.78c-1.33,3.15-1.66,7.5-1.8,10.97c0.2,4.98,0.4,9.9,0.6,14.76
							C505.3,119.33,506.03,114.41,506.23,109.3z"/>
						<path d="M503.9,141.15c0.07,0.06,0.07-0.5,0.13-1.01l0.13-1.51c0.33-4.67,0.4-9.46,0.27-14.38
							c-0.93,5.17-2.06,10.34-2.79,15.51c0.6-0.06,1.06,0.13,1.46,0.5C503.44,140.52,503.77,141.21,503.9,141.15z"/>
					</g>
				</g>
			</g>
		</g>
	</g>
</g>
<g>
	<g>
		<g>
			<g>
				<g class="st0">
					<g>
						<path d="M555.54,250.7c-3.86-0.41-7.07-0.14-10.34,0.69c-5.17,0.83-9.99-1.86-15.46-2.34c-2.73-0.41-5.17-0.41-7.85-0.41
							c-5.35-1.52-11.18-2.48-17.12-2.27c-0.65-0.21-2.56-0.9-2.32,1.72c-5.89-1.45-11.53-3.17-17.12-1.79
							c-2.38,0.28-4.82-1.86-7.19-1.58c-3.86,0.9-7.61-1.86-11.41-1.65c-0.54,0.41-1.72,1.72-2.14,1.52
							c-5.11-2.89-10.11,0.96-15.58,1.93c-2.14,0.14-3.8,0.55-5.94-0.07c-0.36,1.1-0.89,0.76-1.61,1.03
							c-0.42-0.07-1.31-0.48-2.5-1.17c-0.54-0.34-1.19-0.76-1.9-1.17c-0.77-0.55-1.61-1.17-2.32-1.72
							c-1.66-1.31-4.04-3.79-4.28-5.03c-0.71-1.45-0.59-2.62-0.59-3.1c0.18-0.28,0.54,0.96,2.26,2.41c0.77,0.76,2.68,2,3.86,2.48
							c1.25,0.48,2.62,1.03,3.69,1.24c4.64,1.03,8.56,0.96,8.5,0.34c-0.18-0.41-2.79-0.69-5.65-1.38c-2.79-0.55-6.18-1.93-6.78-2.62
							c3.39,0.96,5.71,0.76,7.79,0.55c2.08-0.21,3.86-0.62,5.41-0.9c3.15-0.76,5.41-1.45,7.13-2c3.39-1.17,4.22-1.72,3.69-1.86
							c-1.19-0.14-8.2,1.58-14.15,2.82c-1.72-0.69-4.46,1.03-8.38-0.83c2.85,0.48,7.49-2.76,8.38-2.76c4.52-1.03,3.98-2.82,8.8-2.07
							c3.98,0.62,11.06-2.55,14.45-3.31c-1.78,2-6.12,6.34-8.8,5.65c5.71,2.69,6.72-5.17,12.66-4.41c0.54,0,1.19-0.28,1.9-0.69
							c0.65,0.28,1.31,0.55,2.08,0.9c4.93,0.21,9.27-1.79,14.15-1.1c-0.42,0.07-0.71-1.24-1.13-1.38c-4.22-2.2-7.73,0.69-12.19,0.07
							c-0.83-0.34-2.02,1.58-2.91,1.58c-1.84,0.07-3.45-1.17-5.11-1.93c3.39-1.58,7.31-1.17,11-1.52c0.77-0.21,1.66-1.52,2.26-2.2
							c-1.66-0.14-3.33-0.14-5.05-0.14c-5.83,0.62-13.67,6.27-17.72,2.48c-0.12,0.07-0.24,0.21-0.54,0.34
							c-0.06-0.14-0.12-0.21-0.24-0.28c-0.83,0-1.78-0.21-2.56-1.17l2.2,0.41c5.94-3.72,12.54-1.38,19.02-2.96
							c1.43-0.62,3.8,1.58,5.23,0.9c4.22-1.38,8.62-0.9,12.9,0.69c15.58,4.55,31.27,9.23,47.08,15.57c0.36-0.07,0.71-0.14,1.07-0.21
							l-0.53-0.76c0.36,0.21,0.71,0.41,1.07,0.69c1.96-0.21,3.92-0.07,5.94,1.24c0.83,0.83-1.37,0.21-1.9,1.24
							c0.48,0.14,0.89,0.28,0.89,0.28s-0.06,0.55-0.06,1.17c0.3-0.28,0.59,0.41,0.83,0.76c-4.28,0.41-8.62,0.96-12.96,1.17
							c0.59,1.52,1.84,1.17,2.5,1.31c1.43-0.48,2.85-0.96,4.16-0.55c3.63-0.62,7.61,1.79,11.35,2.14c0.71,0.41,1.55,0.83,2.26,1.31
							C558.69,248.98,556.97,251.04,555.54,250.7z M500.43,230.24c1.19,0.69,2.38,1.65,3.63,2.62c0.42,0.07,0.83,0.21,1.25,0.34
							c0.54,0.21,1.07,0.14,1.66-0.14c2.26,0.9,4.58,1.72,6.9,2.62c-2.38-2.14-4.82-4.06-7.67-4.62c7.31,0.14,13.91,5.44,20.93,8.61
							c2.08,0.41,4.22,0.69,6.36,0.76c1.49,0,2.97-0.34,4.4-0.69c-18.73-5.1-37.04-15.09-55.29-16.81
							C488.48,225.83,494.31,227.48,500.43,230.24z M498.29,231.96c-2.44-0.21-4.82-0.28-7.13-0.07
							c-6.42-0.41-13.32-0.76-17.48,2.96c5.65-1.31,11.41-2.62,17.48-2.96c-5.71-0.41-1.61,0.28,6.12,0.28
							C497.4,231.96,497.82,231.96,498.29,231.96z"/>
						<path d="M533.66,233.06c2.91,1.72,5.41,3.17,8.38,4.89c-1.13-1.65-2.14-3.24-3.39-4.55c-3.39-2.82-7.01-2.82-10.46-4.55
							c-9.99-5.03-20.09-7.3-30.32-8.06c-0.54-0.21-1.61-0.41-2.44,0.07C508.34,224.04,520.7,226.66,533.66,233.06z"/>
						<path d="M479.03,217.84c-1.84,0.48-3.69,0.9-5.41,0.76c1.55,1.31,3.75,1.58,5.53,1.72c2.5-0.21,4.99-0.41,7.43-0.41
							C484.08,218.8,481.59,218.04,479.03,217.84z"/>
						<path d="M495.38,221.01c-0.54-0.14-1.01-0.28-1.55-0.34c-2.38-0.55-4.82-0.76-7.25-0.76c2.62,1.1,5.23,2.41,7.85,3.38
							C494.43,221.97,494.84,221.35,495.38,221.01z"/>
					</g>
				</g>
			</g>
		</g>
	</g>
</g>
<g>
	<g>
		<g>
			<g>
				<g class="st0">
					<g>
						<path d="M590.64,99.46c-3.49-2.76-8.79-3.83-13.74-3.92c-7.97-0.45-15.43-4.9-24.39-5.96c-4.42-0.8-8.56-0.89-12.92-0.98
							c-8.79-2.05-18.57-3.12-28.58-2.14c-1.11-0.18-4.31-0.89-3.84,2.49c-9.78-1.16-19.38-2.49-28.7,0.53
							c-1.63,0.36-3.32,0.27-5.01,0l-0.99-8.72l-0.47,8.72l-0.06-0.09l-0.12-0.09c-0.06-0.09-0.12-0.18-0.47-0.27
							c-0.58-0.09-1.16-0.18-1.69-0.27c-1.11-0.18-2.33-0.09-3.49,0.18c-6.34,2.14-13.04-0.45-19.38,0.8
							c-0.87,0.62-2.68,2.67-3.43,2.49c-9.02-2.49-16.94,3.56-25.61,5.79c-3.38,0.62-6.05,1.34-9.43,0.89
							c-0.35,1.42-1.16,1.16-2.15,1.6c-1.28,0-5.53-1.51-9.78-3.74c-4.19-2.14-8.79-6.5-9.26-7.83c-0.12-0.36,1.86,0.62,4.95,2.05
							c2.85,0.8,6.52,1.69,10.01,1.96c6.99,0.53,13.68-0.18,13.45-0.98c-0.35-0.62-4.72-0.36-9.31-0.89
							c-4.6-0.27-9.49-1.34-10.36-1.96c8.73,0.36,15.02-1.69,20.2-2.94c5.12-1.51,8.96-2.85,11.76-4.01c5.59-2.23,7.04-3.2,6-3.12
							c-2.04,0.09-13.97,3.92-23.58,6.41c-2.97-0.53-7.28,1.87-13.33,0.36c3.84-0.09,10.94-4.72,12.52-4.99
							c7.51-2.14,6.29-4.27,14.79-4.18c6.99,0,18.74-5.79,24.57-7.57c-2.91,3.03-9.9,9.7-14.49,9.44
							c10.13,2.05,10.94-8.19,21.25-8.81c0.93-0.18,2.04-0.71,3.2-1.34c1.16,0.18,2.27,0.36,3.67,0.53c1.63-0.18,3.26-0.45,4.83-0.8
							c1.75-0.27,2.79-0.8,5.76-0.89h-1.22c5.01-1.34,9.84-2.67,15.13-2.76c-0.7,0.18-1.28-1.42-2.04-1.6
							c-4.72-1.25-8.85,0.09-13.27,1.34h1.57c-2.79,0.09-3.84,0.62-5.3,0.8c-1.34,0.27-2.74,0.45-4.19,0.53
							c-1.51-0.27-3.38,2.58-4.95,2.76c-3.14,0.62-6-0.62-8.96-1.16c5.76-2.85,12.4-3.38,19.09-4.72c0.52-0.18,1.05-0.45,1.57-0.89
							c0.87-0.36,1.92-0.8,2.91-1.25l-2.04,0.09c0.41-0.45,0.76-0.8,1.05-1.16l-1.11,0.09l2.15-0.09l-2.1-0.09l-1.57,0.09
							l-2.15,0.18l-3.96,0.53c-10.25,2.4-23.11,11.57-30.62,7.66c-0.23,0.18-0.41,0.27-0.87,0.62c-0.12-0.18-0.29-0.27-0.47-0.36
							c-1.4,0.18-3.09,0.09-4.66-0.89l3.9,0.09c9.95-6.14,21.65-4.9,32.83-8.63c0.99-0.45,2.27-0.36,3.67-0.18
							c0.76,0.09,1.51,0.18,2.27,0.36c1.34,0.09,2.62,0.18,3.67,0.27l-2.21,0.09c0.64,0,1.28-0.18,1.75-0.36
							c7.39-2.85,15.19-3.03,22.76-1.69c27.18,3.65,54.72,8.63,80.04,21.28c0.58,0,1.22,0,1.8,0.09l-0.7-1.16
							c0.52,0.45,1.05,0.8,1.57,1.25c3.2,0.53,6.46,1.34,9.2,4.27c1.11,1.51-2.15-0.53-3.2,0.45c0.64,0.45,1.28,0.8,1.28,0.8
							s-0.17,0.71-0.41,1.42c0.52-0.18,0.76,0.8,1.05,1.42c-6.52-1.78-13.62-2.23-20.72-2.76c0.76,2.05,2.91,1.87,3.84,2.23
							c2.33-0.27,4.72-0.45,6.81,0.45c5.76,0.45,11.76,5.16,15.37,8.1c0.58,0.89,1.16,1.87,1.63,2.85c0.52,0.98-0.23,1.34-0.81,1.87
							C591.98,100,591.17,100.08,590.64,99.46z M503.62,66.17c2.1,0.71,4.13,1.87,6.23,3.03c0.7,0.09,1.46,0.18,2.21,0.27
							c0.93,0.18,1.86,0,2.85-0.36c3.9,0.98,7.86,1.96,11.76,2.94c-3.96-2.67-8.09-4.99-13.04-5.43
							c12.69-0.45,23.81,6.23,35.33,10.77c3.49,0.71,7.04,1.16,10.59,1.69c2.5,0.27,5.01,0.09,7.45-0.18
							c-30.68-9.88-62.46-20.92-94.83-18.78C482.95,62.25,493.02,63.32,503.62,66.17z M499.95,68.66c-4.13,0-8.27,0.45-12.28,1.07
							c-5.12,0.36-10.48,0.71-15.43,1.78H473c-2.21,0.09-3.38,0.45-4.83,0.8c-1.34,0.36-2.62,0.8-3.84,1.34
							c-2.44,0.98-4.6,2.23-6.4,3.83l7.16-2.31c2.56-0.71,4.54-1.6,7.86-1.96h-0.52c5.01-1.42,10.13-2.58,15.31-3.47
							c-9.9,0.71-2.74,0.53,10.54-0.62C498.49,68.75,499.13,68.66,499.95,68.66z"/>
						<path d="M560.84,69.55c4.54,2.58,9.08,4.99,13.45,8.1c-1.57-2.4-3.03-4.72-5.01-6.68c-5.41-4.36-11.7-4.99-17.52-7.39
							c-16.82-7.3-34.64-9.7-52.62-9.17c-0.87-0.18-2.85-0.27-4.31,0.45C517.59,56.82,539.24,59.4,560.84,69.55z"/>
						<path d="M465.78,54.15c-3.32,1.07-6.46,2.14-9.55,2.4c2.91,1.25,6.69,1.07,9.9,0.71l2.85-0.53l1.63-0.27
							c1.05-0.09,2.04-0.09,3.09-0.09l-2.5,0.09c2.74-0.53,5.36-0.98,7.97-1.34c-2.68-0.45-5.3-0.8-8.09-0.89l2.79-0.09
							c-1.11-0.18-2.21-0.18-3.32-0.18h-1.69C467.7,53.97,466.71,54.06,465.78,54.15z"/>
						<path d="M494.77,54.86c-0.93-0.09-1.8-0.18-2.74-0.18c-4.25-0.36-8.56-0.09-12.92,0.45c4.6,0.89,9.49,1.87,13.97,2.85
							C493.02,56.38,493.78,55.4,494.77,54.86z"/>
					</g>
				</g>
			</g>
		</g>
	</g>
</g>
<g>
	<g>
		<g>
			<g>
				<g class="st0">
					<g>
						<path d="M536.59,125.6c-0.99-7.19-5.19-13.37-10.53-17.81c-8.36-7.01-17.7-12.11-29.33-13.91c-5.74-0.9-11.18-0.9-16.81-0.12
							c-11.23,0.9-24.23,5.4-33.18,16.13c-1.09,1.02-3.71,4.56-2.67,4.86c-3.66,5.4-5.59,12.11-4.9,18.89
							c0.69,6.72,3.91,13.01,8.41,17.63c3.66,3.96,7.81,8.27,12.61,10.67c7.76,3.78,15.83,7.07,24.28,7.61
							c1.19-0.06,3.71-0.6,4.65-0.48c11.57,1.2,22.21-3.36,31.26-9.53c3.61-2.46,6.13-4.68,9.05-7.55c0-0.66,0.74-1.32,1.38-2.28
							c0.99-1.14,4.45-4.92,6.53-9.47c2.23-4.44,2.72-9.47,2.97-10.31c0.05-0.24,0.2,1.98-0.3,5.34c-0.49,3.36-2.03,7.79-4.45,11.69
							c-4.8,7.97-12.51,12.95-12.07,13.01c0.4-0.06,5.39-3.36,9.4-8.21c4.15-4.74,6.53-11.03,6.82-12.05
							c-1.53,5.52-4.25,10.13-7.17,13.73c-2.92,3.66-6.03,6.36-8.9,8.57c-5.84,4.38-10.83,6.54-14.44,8.03
							c-7.37,2.76-9.5,3-8.11,2.88c1.38-0.24,6.23-1.26,11.97-3.84c5.79-2.52,12.31-6.83,17.06-11.93
							c3.12-2.88,7.17-8.03,10.14-16.19c-0.69,2.52-1.98,6.36-3.76,9.59c-1.73,3.24-3.76,5.94-4.6,6.83
							c-3.86,4.2-5.74,5.7-7.71,7.37c-2.03,1.56-4.3,3.24-9.99,5.52c-4.65,1.86-11.13,3.96-17.61,4.98
							c-6.48,1.14-12.86,1.2-17.11,0.72c4.55-0.06,14.64-1.8,20.87-2.82c-6.87,0.48-10.73,1.02-14.79,1.56
							c-4.01,0.42-8.26,0.9-15.43-1.2c-1.24-0.3-2.77-0.72-4.6-1.2c-1.53-0.72-2.97-1.38-4.75-2.4c-5.64-2.7-10.78-5.94-15.43-10.25
							c-4.55-4.32-8.7-9.83-11.08-17.09c0.45,1.2,0.3,2.22,0.79,3.48c2.27,6.24,5.93,10.85,9.89,14.57
							c4.06,3.72,8.51,6.6,13.55,9.35c1.93,1.2,4.95,1.56,7.02,2.34c4.3,1.5,8.11,3.06,12.26,4.08c-8.41-0.6-18.2-4.14-26.31-9.71
							c-1.73-1.08-3.96-2.16-5.34-3c3.56,3.18,7.42,5.82,11.42,7.85c7.07,3.54,15.68,5.4,23.64,5.76
							c8.01,0.42,15.38-0.42,20.72-0.66c0.3-0.12,0.59-0.18,1.24-0.42c0.15,0.06,0.4,0,0.64,0c2.03-0.48,4.5-0.96,6.73-1.32
							c-1.88,0.54-3.76,1.02-5.64,1.44c-14.54,5.1-32.39,3-47.92-4.56c-3.56-1.5-8.61-6-11.67-8.63c-4.6-3.84-8.9-8.99-11.77-15.59
							c-2.92-6.54-4.06-14.51-2.97-21.76c0.89-6.6,3.41-12.53,6.68-17.33s7.17-8.63,11.33-11.63c8.36-6.06,17.61-9.17,26.76-10.43
							c18.25-2.28,37.24,2.52,51.09,15.11l1.98,1.62l-0.69-0.96c0.59,0.6,1.14,1.2,1.63,1.86c3.51,3.18,6.43,7.19,8.11,11.75
							c0.59,1.92-1.58-3.06-2.77-3.9c0.49,0.9,1.04,1.86,1.04,1.86s-0.25,0-0.54-0.06c0.49,0.6,0.49,1.2,0.64,1.8
							c-4.9-8.87-13.3-15.05-22.16-18.89c0.84,1.08,3.46,2.16,4.6,2.94c2.87,1.38,5.64,3.12,7.81,5.22
							c6.53,5.16,10.88,13.67,11.57,21.22c0.1,1.44-0.05,2.82-0.25,4.14c-0.2,1.2-0.4,0.3-0.59-0.6
							C536.93,128.3,536.74,126.86,536.59,125.6z M436.89,113.91c1.68-2.94,3.76-5.4,5.98-7.61c0.74-0.84,1.48-1.68,2.27-2.46
							c1.04-1.02,1.93-1.92,3.07-3.06c4.55-3.54,9.45-6.12,14.49-7.91c-5.19,1.32-10.68,3.48-16.22,8.45
							c7.07-6.66,15.03-9.95,22.75-11.51c7.76-1.56,15.43-1.5,23.14-0.42c4.65,0.48,9.35,1.32,14.05,2.7
							c3.31,0.9,6.48,1.98,9.59,3.3c-9.4-5.1-19.88-7.67-30.41-7.91c-10.53-0.24-21.36,1.86-31.4,7.37
							c-4.99,2.82-9.74,6.48-13.8,11.51c-4.01,4.98-7.32,11.39-8.41,18.89c-1.19,7.43,0,15.41,2.92,22.06
							c2.92,6.72,7.27,12.11,12.07,16.43c-5.98-5.88-11.13-13.49-13.35-22.72C431.2,131.78,432.63,121.53,436.89,113.91z
							 M435.2,120.27c-2.03,6.83-1.78,14.51,0.4,21.04c2.82,9.11,9,16.37,15.28,20.98c6.33,4.68,12.81,7.07,17.66,7.79
							c-6.48-1.86-12.91-4.8-18.79-9.35c-5.84-4.56-11.28-10.97-14.09-19.43c1.34,4.02,2.52,6.06,2.87,6.78
							c0.45,0.72,0.1,0.24-0.69-1.44c-1.53-3.06-5.34-11.87-3.21-23.44C434.61,122.73,434.86,121.59,435.2,120.27z"/>
						<path d="M508.45,89.33c5.89,2.58,11.57,6,16.37,10.43c-1.63-2.04-3.21-3.84-5.59-5.7c-6.48-4.92-14.98-7.43-22.9-8.99
							c-11.42-2.34-23.79-1.74-35.71,3c-5.93,2.4-11.77,5.88-17.01,10.85c-5.19,4.98-9.89,11.69-12.26,20.21
							c-0.54,1.62-1.38,5.46-1.34,8.45c0.94-11.57,6.58-20.92,12.91-27.1c6.43-6.3,13.75-10.25,21.12-12.71
							C478.92,82.92,494.4,83.69,508.45,89.33z"/>
						<path d="M453.9,171.35c4.5,2.46,9.1,4.26,13.55,5.76c-3.91-1.8-9.25-4.26-13.4-6.83c-5.84-3.48-11.47-8.09-16.02-14.33
							C442.33,162.42,447.77,167.57,453.9,171.35z"/>
						<path d="M430.01,127.52c-0.15,1.8-0.2,3.66-0.1,5.46c0.35,8.51,3.66,16.73,8.16,22.9c-4.45-6.83-7.47-15.65-7.32-24.76
							C430.31,131.12,430.01,129.62,430.01,127.52z"/>
					</g>
				</g>
			</g>
		</g>
	</g>
</g>
<g>
	<g>
		<g>
			<g>
				<g class="st0">
					<g>
						<path d="M669.3,229.07c10.25,3.37,20.41,5.19,30.91,6c16.25,1.49,31.28,3.66,49.13,3.03c8.82-0.22,16.93-1.04,25.41-2.25
							c17.19-1.48,36.19-5.2,53.61-12.43c1.96-0.61,7.64-2.66,6.11-3.87c8.37-3.33,16.24-7.29,22.8-12.17
							c6.46-4.83,11.71-10.76,13.37-17.07c1.64-5.06,3.15-10.8,0.45-16.01c-4.48-7.97-12.07-15.86-22.73-20.74
							c-1.56-0.52-5.32-1.12-6.52-1.74c-14.21-7.55-31.02-8.2-46.82-8.92c-6.27-0.4-11.19-0.36-17.19-0.73
							c-0.62,0.71-2.02,0.53-3.73,0.7c-2.2-0.12-9.64-0.58-17.04-0.99c-7.29-0.38-14.35-0.5-15.59-0.9
							c-0.59-0.16,12.05-1.47,24.83-1.63c12.78-0.28,25.54,0.69,25.15,0.22c-0.54-0.29-8.96-1.11-17.74-1.23
							c-8.73-0.25-17.7,0.19-19.15,0.1c30.74-3.07,50.69-1.07,61.96,0.24c11.33,1.48,14.39,2.23,12.45,1.59
							c-1.94-0.6-8.99-2.11-18-3.13c-9.01-1.07-19.99-1.52-29.51-1.28c-5.9-0.46-14.38,0.45-25.82,0.92
							c6.72-0.99,20.78-3.3,24.15-3.21c7.38-0.23,11.01-0.32,14.59-0.46c3.59,0.04,7.44,0.11,16.09,1.62
							c7.09,1.25,16.82,2.77,26.13,5.13c9.37,2.23,18.28,5.5,23.86,8.34c-3.24-1.08-8.68-2.59-14.33-3.92
							c-5.65-1.37-11.62-2.6-15.99-3.96c9.34,3.44,14.94,4.72,20.81,6.21c5.76,1.58,12.23,3.19,20.26,9.95
							c1.48,1.22,3.22,2.64,5.25,4.32c1.38,1.82,2.61,3.61,3.9,5.95c4.46,7.06,6.48,15.01,4.96,22.61
							c-1.3,7.6-5.57,14.58-11.62,20.44c0.99-1.02,2.38-1.27,3.47-2.29c11.03-10.27,13.54-25.12,6.34-38.9
							c-1.09-2.83-4.96-5.54-7.05-7.78c-4.4-4.6-8.4-8.61-13.36-12.15c5.63,2.71,11.3,6.63,16.02,11.65
							c4.62,5.07,8.1,11.34,9.23,17.79c0.71,2.62,1.65,5.88,2.03,8.12c0.7-6.16-0.48-12.61-3.57-18.24
							c-5.45-10.06-16.92-17.55-27.69-22.3c-10.93-4.87-21.44-7.76-28.52-10.82c-0.48-0.07-0.97-0.11-1.88-0.25
							c-0.22-0.12-0.49-0.25-0.81-0.37c-2.96-0.7-6.46-1.61-9.54-2.78c2.75,0.67,5.49,1.24,8.18,2c11.16,1.32,22.8,4.78,33.81,10.34
							c10.89,5.56,21.42,13.51,27.69,24.5c1.45,2.38,2.51,5.95,2.76,9.53c0.41,3.58-0.09,7.14-0.18,9.78
							c-0.6,7.88-4.48,15.38-9.78,21.39c-5.36,6.02-11.87,10.89-18.72,14.7c-24.63,13.9-52.29,20.05-79.45,23.03
							c-27.21,2.77-54.47,1.82-79.89-2.94c-1.23-0.06-2.41-0.2-3.59-0.3c0.49,0.2,0.97,0.45,1.46,0.65
							c-1.08-0.28-2.15-0.55-3.28-0.82c-6.6-0.74-13-2-18.88-4.15c-2.38-1.06,4.52,0.88,6.65,0.61c-1.4-0.35-2.75-0.75-2.75-0.75
							s0.37-0.31,0.73-0.62c-1.12-0.06-1.62-0.61-2.33-0.98c13.66,2.72,27.92,3.92,42.32,4.28c-1.63-1-5.86-0.97-7.84-1.23
							c-4.76-0.01-9.47-0.15-13.72-0.9c-11.96-1.04-23.61-4.85-33.81-8.35c-1.84-0.82-3.52-1.73-5.15-2.64
							C660.37,227.14,665.73,227.74,669.3,229.07z M845.84,227.04c-3.92,1.44-7.91,2.54-12,3.55c-1.38,0.51-2.7,0.98-4.14,1.4
							c-1.75,0.56-3.5,1.26-5.3,2.04c-7.6,2.05-15.26,3.67-22.98,4.95c8.01-0.51,16.38-1.58,25.83-4.64
							c-24.18,8.48-47.17,9.11-70.33,9.01c-7,0.31-14.11,0.45-21.33,0.46c-5.08,0.09-10.05,0.13-15.03,0.21
							c30.88,2.76,62.91,1.94,94.19-4.91c15.58-3.55,31.13-8.53,45.26-16.63c7.07-4.03,13.68-8.91,19.31-14.97
							c5.46-6.11,9.87-13.65,10.62-22.1c-1.97,10.9-9.02,19.56-16.94,26.11C864.93,218.17,855.69,223.16,845.84,227.04z
							 M851.72,222.66c7.12-3.94,13.74-8.56,19.06-14.06c3.76-3.64,7.08-7.83,9.37-12.43c2.29-4.6,3.34-9.6,2.95-14.34
							c-0.62-9.63-7.17-16.98-12.94-20.64c6.83,5.79,12.07,13.83,12.08,22.78c0.17,8.9-4.63,17.63-11.46,24.59
							c3.34-3.28,4.89-5.44,5.46-6.19c0.57-0.75,0.1-0.22-1.19,1.41c-2.54,3.22-9.31,10.31-20.48,16.99
							C854.14,221.21,853.09,221.84,851.72,222.66z"/>
						<path d="M733.4,248.58c-9.28-1.06-18.52-2.38-27.34-4.36c3.3,1.34,6.22,2.61,10.26,3.63c11.03,2.44,23.81,2.38,35.75,2.72
							c17.24,0.51,35.07-0.81,52.91-4.29c17.78-3.52,35.61-9.12,52.07-18.23c1.69-0.82,5.28-2.86,7.58-4.82
							c-20.44,12.37-42.75,18.73-64.8,22.66C777.62,249.66,755.28,250.53,733.4,248.58z"/>
						<path d="M892.1,171.82c-2.91-6.97-7.71-12.95-12.81-17.66c4.03,4.74,9.08,11.87,11.06,18.48c3.44,9.12,1.99,19.45-2.51,27.65
							C893.1,192.38,895.56,181.77,892.1,171.82z"/>
						<path d="M864.57,223.28c1.58-1.03,3.21-2.03,4.79-3.15c7.25-5.07,14.1-11.51,18.49-19.84c-5.51,8.53-13.32,14.61-21.43,19.78
							C867.13,220.62,866.14,221.86,864.57,223.28z"/>
					</g>
				</g>
			</g>
		</g>
	</g>
</g>
<g>
	<g>
		<g>
			<g>
				<g class="st0">
					<g>
						<path d="M968.34,113.82c-6.92,0.09-13.12,0.95-19.43,2.62c-9.85,2.11-18.95-0.4-29.4,0.04c-5.19,0.04-9.93,0.52-14.97,1.18
							c-10.22-0.8-21.42-0.7-32.83,1.1c-1.26-0.15-4.94-0.49-4.38,2.86c-11.21-0.42-22.16-1.12-32.8,2.25
							c-4.51,1.09-9.36-1-13.83,0.09c-7.29,2.31-14.7,0.02-21.84,1.62c-0.98,0.65-3.04,2.83-3.87,2.67
							c-10.08-1.87-18.94,5-28.14,8.69c-3.65,1.16-6.42,2.47-9.96,2.82c-0.22,1.51-1.09,1.45-2.07,2.09
							c-2.67,0.51-17.7-0.79-19.17-2.53c-0.71-0.87,29.11-6.41,28.5-8.08c-0.71-0.87-19.41,3.33-21.1,3.2
							c69.1-28.35,35.82-17.93,14.83-8.36c-3.37,0.26-7.95,3.57-14.4,4.8c3.75-1.96,11.24-8.53,13.08-9.11
							c8.38-3.76,6.95-5.67,16.64-6.98c7.97-1.09,21.38-7.72,28.11-9.85c-3.38,3.19-11.28,10.22-16.55,10.44
							c11.49,1.21,12.44-9.09,24.25-10.19c1.08-0.2,2.36-0.77,3.68-1.51c1.34,0.14,2.6,0.29,4.16,0.43
							c9.69-1.31,18.07-5.07,27.66-5.67c-0.82,0.2-1.42-1.38-2.29-1.45c-8.39-1.65-15.18,3.05-23.9,3.71
							c-1.69-0.22-3.87,2.67-5.63,2.98c-3.57,0.71-6.84-0.45-10.27-0.8c6.53-3.18,14.43-3.91,21.61-5.51
							c1.46-0.48,3.18-2.47,4.28-3.57c-3.32,0.35-6.68,0.79-9.99,1.41c-11.65,2.69-26.48,12.64-35.17,9.49
							c-0.25,0.18-0.47,0.37-0.98,0.65c-0.13-0.17-0.31-0.26-0.53-0.25c-1.64,0.31-3.62,0.45-5.46-0.3l4.53-0.38
							c11.49-7.21,25.12-6.58,37.82-10.63c2.78-1.22,7.67,0.78,10.45-0.44c8.27-3.05,16.99-3.62,25.52-2.78
							c30.61,1.7,61.15,4.12,91.25,9.38c0.69-0.19,1.38-0.3,2.06-0.5l-0.93-0.86c0.65,0.25,1.31,0.41,2.01,0.66
							c3.79-0.63,7.55-0.81,11.34,0.51c1.58,0.93-2.67,0.51-3.75,1.96c0.87,0.07,1.69,0.22,1.69,0.22s-0.11,0.8-0.22,1.51
							c0.64-0.46,1.05,0.42,1.53,0.85c-8.22,1.36-16.49,2.64-24.84,4c1.08,1.83,3.53,1.15,4.7,1.21c2.74-0.87,5.45-1.73,8-1.44
							c6.97-1.51,14.42,0.87,21.25,0.88c1.26,0.41,2.57,0.82,3.8,1.5C973.94,111.29,970.9,114.11,968.34,113.82z M863.16,99.04
							c2.35,0.65,4.67,1.57,7.07,2.48c0.82,0.07,1.64,0.05,2.47,0.11c1.04,0.06,2.11-0.14,3.23-0.61c4.43,0.6,8.89,1.19,13.32,1.7
							c-4.55-2.28-9.27-4.11-14.8-4.06c14.31-1.69,26.94,3.66,40.37,6.33c4.02,0.07,8.08-0.03,12.23-0.31
							c2.93-0.34,5.72-1.03,8.51-1.81c-35.82-2.72-71.37-11.48-107.64-8.16C839.84,96.53,851.27,97.03,863.16,99.04z M859.04,101.8
							c-4.7,0.39-9.31,0.95-13.88,1.77c-12.46,1.29-26.04,2.88-33.8,9.02c10.85-3.47,22.09-6.94,33.8-9.02
							c-11.17,1.17-3.1,0.7,11.9-1.28C857.4,102.02,858.14,101.91,859.04,101.8z"/>
						<path d="M927.78,95c5.4,1.55,10.5,3.1,15.94,4.65c-2.08-1.99-3.94-3.8-6.36-5.25c-6.43-3.03-13.5-2.23-20.2-3.65
							c-19.22-4.39-38.99-4.86-59.18-3.1c-1-0.15-3.2-0.1-4.82,0.74C878.77,88.89,902.86,89.34,927.78,95z"/>
						<path d="M820.63,89.13c-3.65,1.16-7.29,2.31-10.78,2.76c3.27,1.16,7.67,0.78,11.17,0.42c4.9-1.01,9.85-2.11,14.71-2.86
							C830.78,88.87,825.76,88.55,820.63,89.13z"/>
						<path d="M853.21,88.47c-1.04-0.06-2.03-0.04-3.07-0.1c-4.72-0.15-9.55,0.33-14.41,1.08c5.16,0.67,10.5,1.42,15.66,2.08
							C851.26,90.03,852.1,89.03,853.21,88.47z"/>
					</g>
				</g>
			</g>
		</g>
	</g>
</g>
<g>
	<g>
		<g>
			<g>
				<g class="st0">
					<g>
						<path d="M716.8,220.52c6.84-13.35,10.12-26.95,10.71-41.09c0.2-10.96-2.49-21.36-7.05-30.54
							c-4.6-9.22-10.94-17.21-18.73-24.13c-7.82-6.72-16.03-11.44-25.22-14.34c-18.92-4.4-40.5,0.41-56.87,14.63
							c-1.69,1.65-5.87,7.12-7.18,4.78c-6.65,8.75-10.98,18.72-13.39,29.35c-1.28,5.96-1.35,11.55-1.04,16.95
							c0.4,5.39,1.18,10.64,2.83,16.19c0.37,1.13,0.84,2.25,1.34,3.33c0.32,0.7,0.41,0.8,0.54,0.98c0.13,0.19,0.27,0.42,0.4,0.61
							c0.58,0.74,1.33,1.48,2.13,2.22c1.64,1.52,3.8,3.08,5.21,4.32c0.67,0.69,1.55,1.34,2.43,2.12c0.22,0.18,0.44,0.42,0.58,0.74
							c0.14,0.33-0.16,0.57-0.33,0.72c-0.42,0.3-0.85,0.45-1.28,0.65c-1.71,0.8-3.41,1.75-5.55,2.61c-1.71,0.66-3.64,1.23-5.67,1.57
							c-1.26-0.16-3.49-1.19-4.13-0.94c-1.76,0.66-3.52,1.13-5.23,1.56c-0.86,0.16-1.76,0.33-2.62,0.49s-1.9,0.24-2.29,0.25
							c-2.2,0.15-4.37-0.03-6.11-0.65c-0.83-0.36-1.78-0.48-2.2-1.51c-0.42-1.03-0.4-2.27-0.3-3.36c0.2-2.23,0.8-4.1,1.24-5.67
							l0.24-0.86c0.08-0.29,0.16-0.43,0.27-1.14c0.23-1.14,0.46-2.24,0.74-3.24l0.75-2.86l0.32-1c-0.09-0.09,0.26-0.01-0.18-0.28
							l-1.53-0.81l-1.84-0.95l-0.04,0l-0.09-0.05c-0.09-0.05-0.18-0.09-0.31-0.13c-0.09-0.05-0.53-0.37-0.66-0.55
							c0,0.05,0,0.05,0,0.05c-0.04,0-0.09-0.09,0.14,0.23c0.18,0.33,0.27,0.61,0.66,2.02c0.05,0.33,0.06,0.57,0.11,0.99
							c0.1,0.47,0.15,0.94,0.17,1.42c0.01,0.47-0.02,0.95-0.05,1.47l0.01,0.43l0,0l0.04-0.05c0.25-0.29,1.9-0.24,3.38,0.34
							c1.53,0.53,2.85,1.44,3.51,1.85c0.88,0.64,1.42,1.62,1.82,1.76c0.18,0.23,0.26-1.67-0.65-3.4c-0.54-0.93-1.48-2.14-2.76-3.3
							c-1.28-1.11-2.99-2.06-4.34-2.4c-0.3-0.04-0.61-0.08-0.91-0.21c-0.17,0.05-0.43-0.04-0.56-0.03c-0.04,0-0.13,0.15-0.27-0.42
							c-0.05-0.19-0.18-0.42-0.32-0.61c-0.22-0.28,0,0-0.05-0.09l0-0.05c0.18,0.19,0.4,0.37,0.57,0.46
							c0.26,0.18,0.22,0.04,0.18,0.09l-0.16,0.43c-0.29,0.62-0.57,1.58-0.8,2.49c-0.99,3.68-1.44,6.44-1.75,6.16
							c-0.14-0.28-0.06-2.27,0.39-5.03c0.23-1.33,0.57-2.95,0.98-4.1c0.49-1.2,0.29-0.62,0.54-0.82c0.34-0.39,3.28-0.08,5.13,0.96
							c1.97,0.99,3.26,2.19,3.65,2.42c-3.09-4.09-8.63-6.18-10.25-5.05c-0.26,0.1-0.51,0.2-0.72,0.49c-0.13,0.15-0.25,0.2-0.38,0.39
							l-0.28,0.72c-0.49,0.96-0.94,2.2-1.34,3.4c-0.76,2.39-1.39,4.82-1.85,7.02c-0.93,4.15-1.43,8.29-1.42,12.08
							c0.05,3.6,0.41,7.72,2.74,8.94c4.37,1.64,7.65,1.75,9.39,2.18c1.74,0.24,2,0.38,1.01,0.5c-0.99,0.07-3.24,0.08-6.11-0.37
							c-1.43-0.15-3-0.54-4.65-1.02c-1.7-0.62-2.8-2.82-3.24-4.99c-0.98-4.48-0.64-9.7,0.11-14.37c0.75-4.57,1.88-9.34,3.51-13.13
							c0.54-2.67,2.27-4.23,5.04-4.06c2.77,0.21,6.27,1.93,9.5,4.69c-1.61-2.04-4.55-5.34-8.39-6.76c-1.88-0.66-3.95-0.66-5.66,0.14
							c-1.71,0.85-2.66,2.34-3.03,3.06c-1.68,3.5-2.4,5.99-3.17,8.04c-0.68,2.1-1.17,3.44-1.63,5.54c-0.43,1.95-0.76,4.1-0.86,6.99
							c-0.01,2.84-0.01,6.59,1.45,11.1c0.61,1.83,1.4,3.9,2.99,5.42c0.8,0.79,1.76,1.19,2.76,1.49c1,0.31,2.01,0.71,3.18,0.87
							c4.39,0.88,9.97,1.07,14.98,0.99c2.08-0.01,4.19-0.06,6.22-0.06c2.03-0.05,3.76-0.1,6.65-0.41c5.17-0.56,10.04-1.2,13.83-1.92
							c-4.54,0.07-11.8-0.08-17.7-0.5c-5.12-0.53-10.1-0.88-14.93-0.38c4.35-0.73,7.19-1.23,9.82-1.34c1.29-0.08,2.55-0.06,3.72,0
							c1.26,0.06,2.47,0.13,3.72,0.19c5.28,0.29,11.3,0.76,19.61-0.64c3.14-0.55,6.23-1.72,8.91-3.4c1.53-0.89,3.46-1.79,5.33-2.84
							c0.46-0.63,1.4-1.22,1.31-2.74c-0.29-1.13-0.95-1.73-1.62-2.57c-1.75-2.33-3.24-5.04-5.51-9.1c-1.13-2.01-2.83-4.34-5.05-6.51
							c-2.13-2.22-4.13-4.35-5.14-6.74l-0.46-0.89c-0.09-0.23-0.14-0.38-0.19-0.56l-0.37-0.99c-0.19-0.71-0.47-1.36-0.61-2.07
							c-0.38-1.41-0.68-2.83-0.93-4.38c-0.51-3.07-0.81-6.28-0.84-9.41c-0.1,1.09,1.13,1.82,1.33,2.86
							c0.67,2.73,1.26,5.18,1.84,7.59c0.29,1.13,0.58,2.21,0.91,3.3c0.19,0.52,0.33,1.08,0.52,1.6l0.28,0.8
							c0.09,0.28,0.5,0.98,0.77,1.5c1.01,2.16,2.92,4.19,4.96,6.23c2.21,2.03,4.08,4.21,5.35,6.26c2.44,4.11,3.51,7.21,4.96,9.59
							c0.63,0.98,0.69,1.78,0.76,2.73c-0.03,0.43,0.16,1.13-0.51,2.1c-0.63,0.73-1.23,1.07-1.69,1.47
							c-3.48,2.55-6.42,5.8-11.89,8.31l-2.7,1.06c1.08-0.17,2.11-0.34,3.27-0.56c3.79-0.71,7.04-2.12,9.59-3.75
							c2.46-1.72,4.42-3.15,5.91-5.41c0.46-0.72,0.47-1.77,0.38-2.19c-0.1-0.52-0.24-0.94-0.38-1.37l-0.98-2.77
							c-0.87-2.06-1.59-4.79-3.63-8.39c-0.77-1.54-1.73-3.46-2.99-5.38c-1.39-1.81-2.86-3.72-3.93-5.11l3.32,2.85
							c1.15,0.97,2.38,1.93,3.28,3c2.13,2.03,3.26,4.09,4.34,5.91c0.91,1.78,1.47,3.47,1.89,4.79c0.42,1.36,0.76,2.54,0.95,3.48
							c0.21,1.37,0.32,2.31,0.31,3.64c-0.03,0.33-0.02,0.81-0.31,1.52c-0.24,0.62-0.54,1.06-0.83,1.44
							c-0.54,0.77-1.22,1.41-1.94,2.04c-1.44,1.32-3.26,2.64-5.52,3.84c-0.98,0.64-2.48,1.11-3.81,1.61l-2.01,0.71l-2.32,0.53
							c-4.95,0.93-9.77,1.72-14.38,2.4c-2.28,0.34-4.57,0.64-6.76,0.98c-1.9,0.24-3.71,0.47-5.52,0.71c-2.8,0.31-5.47,0.66-8.01,1.1
							c-1.68,0.28-3.31,0.56-4.95,0.84c-1.72,0.23-3.36,0.51-4.95,0.84c-0.61-0.08-1.13-0.26-2.26-0.46
							c-0.34,0.15-0.77,0.21-1.25,0.22c-1.99,0-3.9-0.42-6.03-0.7c-1-0.16-1.92-0.52-2.92-0.78c-1-0.16-1.96-0.57-2.88-1.02
							c2.82,1.92,5.99,2.64,9.55,3.12c4.04,0.94,8.64,1.39,13.57,1.31l5.27-0.09c1.6-0.04,3.11-0.17,4.7-0.31l2.33-0.25l3.75-0.57
							c2.58-0.49,5.21-0.99,7.79-1.43c5.2-1.08,10.36-2.3,15.38-3.66l2.32-0.72l1.96-0.95c1.28-0.65,2.69-1.21,3.54-2.03
							c2.08-1.48,3.64-3.03,4.86-4.53c0.59-0.77,1.17-1.45,1.67-2.32c0.54-0.68,1.1-2.64,1-3.15c0.05-1.38,0.03-2.37-0.06-3.93
							c0.06-0.85-0.22-1.99-0.83-3.58c-0.56-1.55-1.39-3.47-3-5.71c-0.63-1.07-1.79-2.28-2.68-3.39c-1.28-1.15-2.22-2.31-3.63-3.32
							c-1.32-1.06-2.56-2.07-3.58-2.99c-0.53-0.46-1.02-0.92-1.51-1.38c-0.36-0.46-0.71-0.88-1.03-1.35
							c-1.11-1.25-1.71-2.56-2.39-3.87l-0.27-0.47l-0.05-0.19l-0.1-0.38c-0.05-0.24-0.18-0.47-0.24-0.75
							c-0.24-0.99-0.53-1.98-0.73-3.06c-0.44-2.17-0.81-4.77-1-7.09c-0.19-2.37-0.2-4.59-0.04-6.49c0.03-0.52,0.02-0.81,0.18-1.47
							l0.38-1.95c0.27-1.29,0.58-2.57,0.94-3.91c2.75-9.22,8.54-17.8,16.56-23.6c7.98-5.84,18.23-8.9,28.67-8.08
							c10.44,0.78,21.15,5.58,29.75,13.84c8.64,8.22,15.08,20.05,17.63,33.45c-0.01,1.28,0.02,2.51,0.01,3.74
							c-0.27-0.56-0.5-1.08-0.78-1.59c0.25,1.18,0.49,2.31,0.74,3.49c-0.21,6.93-1.04,13.63-1.94,20.67
							c-0.05,3.04,1.65-4.69,2.9-6.62c-0.18,1.62-0.48,3.19-0.48,3.19s0.6-0.11,1.2-0.27c-0.58,1.15-0.12,2.04-0.01,3.03
							c4.79-15.48,4.44-32.92-1.57-48.17c2.06,1.13,3.35,5.98,4.1,8.24c1.05,5.52,1.4,11.01,2.01,16.07
							c0.05,7.06-0.15,14.32-1.31,21.56c-1.16,7.24-3.27,14.35-6.57,20.55c-0.97,2.49-2.04,4.93-3.1,7.33
							c-0.2,0.62-0.06,0.95,0.24,0.99c0.3,0.09,0.86-0.21,1.66-0.85C713.64,225.39,715.61,223.02,716.8,220.52z M621.9,145.9
							c1.43-3.17,2.99-6.33,5.03-9.42c0.84-0.92,1.73-1.8,2.66-2.63c1.1-1.12,2.5-2.01,3.99-2.71c5.08-4.3,11.09-7.58,17.66-9.55
							c-6.4,3.34-12.09,7.42-18.32,12.37c8.32-5.9,17.3-9.87,27.16-11.5c9.77-1.58,20.53-0.43,30.56,4.96
							c5.76,3.69,11.03,8.73,15.3,14.92c2.92,4.43,5.04,9.31,6.5,14.29c-6.74-14.95-18.86-25.74-31.94-30.19
							c-13.13-4.6-27.01-2.87-37.83,3.33c-10.91,6.16-18.82,16.64-22.5,28.07c-0.48,1.43-0.88,2.87-1.23,4.35
							c-0.35,1.48-0.66,3-0.72,4c-0.2,2.33-0.13,4.98,0.24,7.72c0.37,2.65,1.05,5.57,1.84,7.87c0.42,1.13,0.88,2.25,1.42,3.23
							c0,0.14,1.17,1.96,1.9,3.18c1.16,1.3,2.1,2.6,3.64,3.84c-1.06-0.78-1.94-1.61-2.66-2.4c-0.84-0.78-1.55-1.62-2.05-2.41
							l-1.3-1.82c-0.22-0.33-0.45-0.6-0.67-0.98c-0.86-1.35-1.54-2.76-2.23-4.45c-1.3-3.43-2.13-7.25-2.39-10.84
							c-0.09-1.8-0.09-3.51,0.08-5.26c0.29-2,0.68-4.05,1.23-6.05C618.34,153.77,619.88,149.79,621.9,145.9z M617.17,150.15
							c-1.65,3.12-3.04,6.38-4.12,9.73c-1.17,3.44-1.78,6.4-2.04,9.86c-0.14,4.6,0.5,9.52,1.7,13.94c0.66,2.31,1.23,4.09,2.46,6.48
							c1.33,2.81,3.77,5.36,5.91,7.86c2.05,2.51,3.41,4.8,4.58,6.62s2.24,3.21,3.23,4.42c0.49,0.6,0.94,1.16,1.43,1.77
							c0.32,0.56,1.16,1.25,0.49,2.26c-1.61,1.23-3.64,1.28-5.53,1.66c1.03-0.31,2.1-0.62,3.13-0.98c0.51-0.2,1.03-0.41,1.45-0.8
							c0.51-0.34,0.49-1.15,0.18-1.52c-1.12-1.58-2.58-2.68-3.82-4.12c-2.66-2.73-4.66-6.61-8.5-11.35
							c-0.89-1.16-1.75-2.33-2.42-3.54c-0.68-1.17-1.36-2.62-1.65-3.51c-0.74-1.97-1.31-4.04-1.71-6.12
							c-0.84-4.29-1.13-8.79-0.85-13.11c-0.11,4.13,0.3,6.53,0.36,7.39c0.11,0.85-0.04,0.24-0.26-1.65
							c-0.22-1.84-0.43-5.01-0.01-8.91c0.42-3.71,1.98-8.77,4.49-13.86C615.97,152.31,616.51,151.35,617.17,150.15z"/>
						<path d="M701.21,148.48c5.77,6.06,10.22,14.2,13.04,23.23c-2.07-3.31-4.09-5.96-6.37-9.22c-5.42-8.92-11.36-18.15-19.61-23.11
							c-11.68-6.96-24.73-8.42-36.1-5.01c-11.37,3.32-20.89,11.48-26.37,22.15c-0.45,1.15-1.42,3.5-2.51,5.14
							c4.16-14.9,16.47-27.06,31.83-30.25C670.34,127.98,688.3,133.54,701.21,148.48z"/>
						<path d="M645.58,208.21c0.35,3.45-0.21,5.17-0.6,6.94l-0.43,1.76c-0.32,1.1-0.64,1.91-0.93,2.54
							c-0.57,1.25-1.23,2.45-2.07,3.7c0.49-1.29,0.89-2.54,1.28-3.87c0.2-0.67,0.44-1.43,0.67-2.62c0.1-1,0.05-1.42,0.04-1.99
							c-0.18-1.94-0.45-4.07-1.4-7.31c-0.44-2.17-1.38-5.04-3.71-8.3c-2.2-3.26-6.74-6.47-9.79-9.42l-2-2.32
							c-0.58-0.79-0.95-1.59-1.44-2.38c-0.18-0.33-0.59-0.98-0.59-0.98l-0.14-0.38c-0.09-0.23-0.23-0.47-0.28-0.75
							c-0.41-0.98-0.66-2.12-0.95-3.25c0.55,1.08,1.05,2.06,1.63,2.9l1.35,1.96c0.58,0.79,0.99,1.59,1.7,2.37l2.31,2.36
							c3.58,3.04,8.81,6.41,11.32,9.95C644.14,202.7,645.17,205.85,645.58,208.21z"/>
						<path d="M623.34,161.7c-0.32,1.19-0.63,2.39-0.86,3.58l-0.19,1.05l-0.07,0.67l-0.09,1.47c-0.06,1.04-0.03,2.23,0,3.46
							c0.11,2.46,0.48,5.2,1.06,7.75c-1.1-2.58-2.04-5.49-2.54-8.23c-0.25-1.37-0.42-2.74-0.45-4.02c-0.02-0.62-0.03-1.23,0-1.8
							c0.11-0.81,0.22-1.62,0.37-2.47C621.62,163.59,622.55,162.81,623.34,161.7z"/>
					</g>
				</g>
			</g>
		</g>
	</g>
</g>
<g>
	<g>
		<g>
			<g>
				<g class="st0">
					<g>
						<path d="M994.14,135.38c-6.94-0.98-13.16-0.82-19.53,0.38c-9.87,1.18-18.98-3.56-29.43-4.57c-5.21-0.79-9.96-0.79-15.02-0.89
							c-10.23-2.63-21.42-4.2-32.91-3.67c-1.26-0.31-4.92-1.38-4.46,3c-11.26-2.26-22.18-4.99-32.91-2.17
							c-4.52,0.69-9.37-2.77-13.89-2.07c-7.34,1.92-14.71-2.29-21.91-1.29c-0.98,0.72-3.07,3.2-3.95,2.88
							c-10.09-3.91-19.06,3.49-28.36,6.85c-3.65,1.02-6.47,2.13-10.02,2.11c-0.25,1.97-1.13,1.65-2.1,2.48
							c-2.68,0.18-17.74-3.83-19.14-6.22c-0.72-1.25,29.26-3.87,28.68-6.05c-0.72-1.25-19.51,1.31-21.21,0.77
							c69.76-26.06,36.21-17.8,15-8.59c-3.38-0.26-8,3.33-14.51,3.95c3.8-1.95,11.44-9.31,13.28-9.82
							c8.43-3.57,7.06-6.31,16.78-6.44c7.99-0.2,21.58-6.68,28.36-8.47c-3.45,3.56-11.51,11.51-16.75,11.06
							c11.5,3.41,12.63-9.92,24.49-9.53c1.12-0.14,2.36-0.64,3.73-1.37c1.35,0.43,2.57,0.74,4.18,1.17
							c9.77-0.13,18.19-3.82,27.81-3.02c-0.82,0.14-1.39-2.05-2.26-2.26c-8.39-3.49-15.26,1.66-24.05,1.07
							c-1.7-0.53-3.95,2.88-5.72,2.92c-3.58,0.32-6.87-1.56-10.27-2.63c6.62-3.18,14.54-2.8,21.74-3.79
							c1.5-0.39,3.22-2.74,4.35-3.93c-3.33-0.03-6.7,0.05-10.07,0.26c-11.72,1.69-26.8,12.25-35.41,6.8
							c-0.26,0.12-0.51,0.36-0.98,0.72c-0.14-0.23-0.31-0.34-0.53-0.45c-1.64,0.16-3.63-0.02-5.44-1.25l4.54,0.12
							c11.65-7.58,25.3-4.69,38.06-7.91c2.82-1.23,7.67,2.23,10.49,1c8.32-2.64,17.11-2.05,25.6,0.39
							c30.66,6.97,61.17,14.86,91.2,26.36c0.69-0.13,1.38-0.15,2.07-0.28l-0.94-1.25c0.66,0.33,1.32,0.78,1.98,1.22
							c3.8-0.33,7.57,0.15,11.35,2.49c1.55,1.46-2.68,0.18-3.8,1.95c0.87,0.21,1.7,0.53,1.7,0.53s-0.15,0.93-0.25,1.97
							c0.64-0.48,1.05,0.67,1.55,1.35c-8.29,0.44-16.58,0.88-24.96,1.33c1.02,2.63,3.51,1.99,4.68,2.31
							c2.75-0.76,5.5-1.41,8.07-0.67c7.02-0.87,14.44,3.45,21.25,4.43c1.27,0.78,2.55,1.55,3.78,2.56
							C999.78,132.92,996.71,136.12,994.14,135.38z M889.08,99.78c2.37,1.21,4.65,2.77,7.03,4.33c0.83,0.21,1.65,0.3,2.48,0.52
							c1.05,0.32,2.12,0.18,3.24-0.2c4.45,1.39,8.89,2.9,13.34,4.29c-4.5-3.59-9.21-6.82-14.76-7.6
							c14.36,0.1,26.91,9.03,40.32,14.47c4.04,0.71,8.12,1.3,12.27,1.54c2.94,0.04,5.78-0.49,8.58-1.03
							c-35.86-9.15-71.26-26.05-107.66-27.44C865.73,92.85,877.16,95.34,889.08,99.78z M884.88,102.77
							c-4.72-0.23-9.34-0.22-13.92,0.12c-12.5-0.26-26.16-0.26-34.03,6.53c10.91-2.82,22.25-5.54,34.03-6.53
							c-11.21-0.29-3.1,0.43,11.94,0.16C883.23,102.82,883.97,102.8,884.88,102.77z"/>
						<path d="M953.88,104.6c5.35,2.87,10.48,5.63,15.87,8.5c-2.06-2.84-3.86-5.57-6.25-7.7c-6.39-4.93-13.49-4.98-20.13-7.93
							c-19.16-8.65-38.97-12.42-59.22-13.29c-1-0.32-3.21-0.61-4.84,0.24C904.93,89.08,929.04,93.44,953.88,104.6z"/>
						<path d="M846.65,80.27c-3.65,0.9-7.34,1.92-10.89,1.9c3.25,2,7.67,2.23,11.17,2.26c4.96-0.59,9.91-1.18,14.79-1.42
							C856.79,81.52,851.79,80.37,846.65,80.27z"/>
						<path d="M879.31,84.41c-1.04-0.2-2.04-0.41-3.08-0.5c-4.74-0.92-9.58-1.03-14.46-0.79c5.19,1.72,10.51,3.55,15.65,5.15
							C877.32,86.2,878.15,85.02,879.31,84.41z"/>
					</g>
				</g>
			</g>
		</g>
	</g>
</g>
<g>
	<g>
		<g>
			<g>
				<g class="st0">
					<g>
						<path d="M232.19,116.25c-11.28,0.09-21.49,0.86-31.75,2.59c-15.85,2.59-30.37,5.06-45.94,11.19
							c-7.67,3.07-14.42,6.61-20.75,11.15c-6.42,4.37-12.62,9.98-15.99,17.07c-3.51,7-3.47,15.47,0.46,22.82
							c0.32,0.82,1.25,2.38,2.03,3.63c0.92,1.21,1.8,2.12,1.99,1.64c4.85,6.61,11.69,12.14,19.13,16.55
							c7.49,4.45,15.62,7.95,24.03,10.5c7.03,2.25,14.37,4.88,21.72,6.31c11.97,2.2,23.8,4.54,35.82,5.1c1.66,0,5.27-0.3,6.7-0.22
							c8.23,0.69,16.27,0.48,24.08,0.04c7.86-0.48,15.44-1.38,22.92-2.81c5.92-1.04,10.45-2.16,16.08-3.5
							c0.42-0.48,1.8-0.78,3.33-1.3c4.25-0.95,28.33-6.96,30.69-7.17c0.55-0.09-11.09,3.59-22.83,6.92
							c-5.87,1.69-11.79,3.2-16.13,4.24c-4.39,1.04-7.26,1.56-7.03,1.64c0.6,0.04,8.5-1.43,16.55-3.54
							c8.04-2.07,16.22-4.49,17.61-4.84c-13.91,4.58-25.33,7.95-34.76,9.9c-9.43,1.94-16.78,2.59-22.09,3.03
							c-10.72,0.78-13.63,0.86-11.69,0.91c1.94-0.04,8.74-0.17,17.24-0.95c8.5-0.69,18.67-2.55,27.22-5.01
							c5.45-1.17,12.94-3.76,23.34-6.79c-6.05,2.12-18.3,6.74-21.35,7.43c-6.89,1.94-9.84,2.68-13.03,3.41
							c-3.24,0.65-6.75,1.43-14.98,1.99c-13.45,0.82-36.56,1.9-48.21,0.99c6.1-0.04,20.11-0.99,28.84-0.99
							c-9.52-0.26-14.98-0.04-20.52,0.22c-5.55,0.17-11.28,0.43-21.21-0.95c-1.8-0.22-3.93-0.43-6.33-0.69
							c-2.17-0.39-4.25-0.86-6.84-1.43c-16.13-3.16-30.41-6.61-45.02-13.79c1.25,0.56,1.85,1.34,3.14,1.94
							c12.57,6.31,24.45,8.9,38.92,12.06c2.77,0.65,6.79,0.78,9.75,1.21c6.05,0.95,11.37,1.94,17.05,2.68
							c-11.42-0.43-24.73-2.64-36.7-5.49c-2.5-0.61-5.59-0.95-7.58-1.3c5.5,1.6,11.05,3.03,16.69,4.11
							c9.89,1.94,21.45,2.94,32.26,3.37c10.82,0.43,20.98,0.22,28.06,0.69c0.42-0.04,0.83-0.09,1.71-0.13
							c0.23,0.04,0.51,0.09,0.83,0.09c2.77-0.09,6.1-0.04,9.15,0.04l-7.72,0.13c-9.94,0.78-20.8,0.99-31.85,0.26
							c-11.05-0.78-22.28-2.2-33.09-4.24c-4.85-0.73-12.53-3.33-17.24-4.58c-13.87-3.67-28.01-9.59-39.56-18.45
							c-5.18-3.98-10.08-8.47-13.87-13.87c-3.84-5.32-6.47-11.63-6.93-18.2c-0.18-3.28,0.14-6.53,0.88-9.68
							c0.88-3.11,2.13-6.09,3.79-8.86c3.33-5.49,7.86-10.07,12.85-13.92c10.08-7.65,21.72-12.79,33.6-16.6
							c11.88-3.8,24.17-6.14,36.42-7.61c1.16-0.17,2.26-0.39,3.37-0.56c-0.51,0-1.02,0-1.48,0c1.06-0.09,2.13-0.17,3.24-0.26
							c6.29-0.91,12.53-1.43,18.67-1.43c2.54,0.09-4.44,0.35-6.33,0.86c1.39-0.04,2.82-0.13,2.82-0.13s-0.23,0.22-0.51,0.39
							c1.06-0.17,1.71,0,2.5,0.09c-13.63,0.99-27.27,3.2-40.58,6.53c1.66,0.04,5.59-0.95,7.49-1.3c4.44-1.04,8.87-2.03,13.03-2.46
							c11.42-1.94,23.53-1.99,34.66-2.03c1.99,0.13,4.02,0.3,6.1,0.43C241.52,115.73,236.3,116.34,232.19,116.25z M120.52,193.23
							c-2.45-2.98-4.44-6.14-6.01-9.64c-0.55-1.21-1.2-2.38-1.57-3.67c-0.6-1.56-1.06-3.24-1.62-5.01
							c-1.16-7.04,0.42-14.22,4.11-20.18c-3.97,5.71-6.52,13.48-4.16,22.43c-1.71-5.71-1.39-11.58,0.46-16.77
							c1.76-5.23,5.04-9.68,8.74-13.48c7.53-7.56,16.87-12.62,26.81-16.86c5.96-2.68,12.2-5.01,18.67-7.04
							c4.58-1.47,9.11-2.77,13.59-3.98c-14.37,3.03-28.52,7.35-41.37,14.22c-6.42,3.41-12.48,7.61-17.61,12.75
							c-5.04,5.14-9.24,11.54-10.49,18.84c-1.34,7.26,0.28,15,4.11,21.48c3.74,6.57,9.24,12.06,15.3,16.64
							c12.16,9.25,26.58,15.34,41.37,19.79c-9.52-3.2-18.63-6.92-27.22-11.63C135.08,206.41,126.9,200.75,120.52,193.23z
							 M126.07,197.81c5.96,5.06,12.62,9.16,19.5,12.49c18.72,9.42,41.55,14.35,55.14,15c-18.26-2.29-37.3-6.48-55.14-15
							c8.46,4.06,9.75,4.32,5.92,2.72c-3.79-1.73-12.85-5.58-22.79-13.14C128.19,199.5,127.22,198.76,126.07,197.81z"/>
						<path d="M167.11,120.19c8.46-2.03,17.1-3.5,25.7-4.41c-3.33,0-6.29,0.09-10.17,0.52c-10.45,1.38-21.86,4.71-32.26,8.6
							c-7.49,2.77-14.84,6.27-21.63,10.85c-6.75,4.58-13.17,10.37-17.38,17.94c-4.3,7.48-5.59,17.03-2.82,25.54
							c2.73,8.6,8.64,15.65,15.25,21.39c1.29,1.17,4.25,3.59,6.75,5.06c-8.87-6.4-17.05-14.44-20.89-24.85
							c-1.85-5.14-2.54-10.76-1.57-16.08c0.92-5.32,3.19-10.29,6.24-14.57c6.19-8.56,14.88-14.61,23.94-19.32
							C147.47,126.06,157.17,122.74,167.11,120.19z"/>
						<path d="M181.95,227.29c6.24,1.25,12.53,2.2,18.53,3.11c-5.41-1.17-12.76-2.55-18.63-3.93c-8.32-1.82-16.55-4.11-24.45-7.04
							C165.17,222.66,173.3,225.3,181.95,227.29z"/>
						<path d="M130.6,205.63c1.48,0.99,2.87,2.03,4.39,2.94c6.89,4.37,14.47,7.95,22.37,10.85c-8.23-3.37-16.04-7.52-23.43-12.45
							C133.74,207.32,132.35,206.67,130.6,205.63z"/>
					</g>
				</g>
			</g>
		</g>
	</g>
</g>
<g>
	<g>
		<g>
			<g>
				<g class="st0">
					<g>
						<path d="M773.79,131.47c9.14,0.11,17.26,0.81,25.57,2.12c12.81,2.27,23.63,6.79,34.45,13.56c5.33,3.41,9.85,7.01,13.91,11.32
							c7.74,8.84,12.58,20.86,11.01,33.14c-0.18,1.3-1.33,5.09-0.25,4.89c-3.75,11.77-12.76,21.16-22.78,28.94
							c-4.35,3.22-9.86,5.53-14.83,7.9c-8.11,4.05-17.2,6.02-26.02,7.84c-1.18,0.42-3.81,1.26-4.83,1.38
							c-7.01,0.65-11.97,1.08-18.23,1.67c-5.88,0.54-11.86,1.17-18.09,0.76c-4.87-0.39-8.62-0.95-12.92-2.09
							c-0.53,0.23-1.57-0.05-2.82-0.27c-3.43-0.78-20.08-7.27-21.34-8.23c-0.28-0.25,8.01,2.56,16.62,5.07
							c8.55,2.64,18,4.08,17.72,3.74c-0.44-0.12-6.57-1.13-12.5-2.79c-5.93-1.62-11.82-3.55-12.75-3.91
							c10.29,2.81,18.99,4.88,26.25,5.43c7.2,0.59,12.65,0.07,16.59-0.25c7.87-0.76,9.92-1.16,8.51-1.08
							c-2.81,0.03-19.83,2.49-32.98-0.28c-3.97-0.98-9.78-2-17.25-4.4c4.57,1.18,14.18,2.67,16.4,3.04c5.1,0.91,7.32,0.94,9.7,1.05
							c2.38,0.07,4.87,0.31,10.71,0.33c4.81,0.01,11.61-0.51,17.86-1.41c6.3-0.9,12.21-2.39,16.07-3.44
							c-3.74,1.69-13.39,4.71-19.82,4.87c6.97-0.13,10.83-1.23,14.59-2.36c3.75-1.26,7.45-2.57,14.1-4.55
							c1.23-0.38,2.57-0.97,4.01-1.62c1.45-0.47,2.9-0.9,4.56-1.54c10.37-4.37,18.01-10.1,25.13-17.07
							c-0.58,0.62-1.39,0.77-2.02,1.35c-6.84,5.41-12.6,10.31-21.8,14.3c-1.77,0.69-3.94,2.22-5.87,2.96
							c-3.91,1.48-7.67,2.18-11.55,2.93c7.4-2.39,15.97-5.34,22.95-9.27c1.38-0.86,2.86-2.15,3.71-2.99
							c-3.09,1.85-6.34,3.53-9.71,5.13c-5.87,2.79-12.99,5.69-20.18,7.65c-7.14,1.91-14.25,2.91-19.28,2.61
							c-0.32,0.05-0.59,0.1-1.24,0.2c-0.16-0.04-0.38-0.03-0.6-0.07c-2,0.14-4.37,0.2-6.54-0.01l5.51-0.14
							c13.95-1.78,29.68-4.21,42.43-10.68c2.72-1.41,7.75-3.31,10.19-5.14c7.27-5.11,13.93-11.08,18.68-17.68
							c8.61-11.94,8.49-27.58-0.8-39.97c-9.13-12.48-25.3-21.36-42.93-26.14c-0.87-0.15-1.68-0.3-2.55-0.45l0.98,0.45
							c-0.76-0.2-1.52-0.44-2.29-0.68c-4.67-0.79-9.33-1.36-13.95-2.11c-1.9-0.38,3.41,0.13,4.92,0.05
							c-1.03-0.15-2.12-0.29-2.12-0.29s0.21-0.18,0.48-0.31c-0.81,0.02-1.3-0.23-1.85-0.39c10.56,0.68,21.15,2.57,31.02,6
							c-0.89-0.89-3.94-1.72-5.3-2.2c-3.48-0.78-6.63-1.52-10-2.3c-8.8-1.59-18.13-3.17-27-3.25c-1.52-0.09-3.14-0.22-4.87-0.31
							C766.35,132.14,770.39,131.34,773.79,131.47z M850.78,197.95c0.97-2.06,1.95-4.11,2.6-6.33c0.14-0.78,0.34-1.57,0.37-2.39
							c0.14-1,0.16-2.04,0.03-3.16c0.27-4.29-0.33-8.6-1.79-12.8c0.98,4.34,1.25,8.83,1.06,14.11c0.19-13.58-5.84-25.75-17.5-35.4
							c-3.69-2.76-7.81-5.25-12.35-7.38c-3.23-1.43-6.5-2.64-9.88-3.64c10.1,3.85,19.26,9.28,26.14,16.07
							c6.93,6.74,11.46,14.88,12.48,23.29c1.08,8.36-1.19,16.76-6.09,24.02c-4.9,7.26-12.14,13.45-20.61,18.47
							C836.67,216.9,845.86,208.5,850.78,197.95z M849.8,202c-2.11,4.2-4.98,8.08-8.24,11.67c-9.21,9.75-23.63,16.64-32.17,20.75
							c12.2-4.68,23.65-11.58,32.17-20.75c-4.27,4.22-5.07,4.67-2.95,2.89c1.95-1.78,6.66-6.09,10.32-12.76
							C849.03,203.49,849.45,202.83,849.8,202z"/>
						<path d="M820.38,146.11c-5.21-2.94-11.05-5.34-17.11-7.35c2.35,1.15,4.43,2.22,6.52,3.29c6.78,2.98,14.27,6.34,20.05,10.64
							c8.21,6.19,14.78,13.85,17.7,22.33c2.97,8.48,2.4,17.66-1.88,25.94c-0.47,0.79-1.5,2.55-2.22,3.95
							c7.16-9.82,8.58-21.75,3.99-32.4C842.89,161.84,832.87,152.71,820.38,146.11z"/>
						<path d="M817.47,225.08c-3.46,1.9-7.21,3.56-10.91,4.77c3.6-0.78,8.15-2.5,11.62-4.23c4.8-2.46,9.27-5.29,13.24-8.42
							C827.13,220.13,822.49,222.67,817.47,225.08z"/>
						<path d="M843.5,204.88c-0.52,0.79-1.2,1.54-1.78,2.34c-2.88,3.53-6.37,6.86-10.29,9.99c4.41-3.05,8.54-6.44,11.73-10.42
							C842.73,206.63,843.04,205.89,843.5,204.88z"/>
					</g>
				</g>
			</g>
		</g>
	</g>
</g>
<g>
	<g>
		<g>
			<g>
				<g class="st0">
					<g>
						<path d="M343.35,175.92c-0.09-3.69-1.21-7.1-3.07-10.01c-2.77-4.62-5.75-9.09-10.72-12.73c-2.42-1.8-4.93-3.06-7.65-4.18
							c-5.32-2.72-11.89-4.37-18.67-4.13c-0.73-0.05-2.9-0.19-2.64,0.73c-6.53,0-13.1,1.17-18.58,4.76
							c-2.33,1.36-5.06,2.33-7.13,4.28c-3.2,3.16-6.74,6.03-8.77,10.26c-0.17,0.63-0.39,2.09-0.61,2.58
							c-1.6,2.67-2.16,5.83-2.07,8.8c0.13,2.87,0.65,6.42,1.38,8.8c0.52,1.94,1.25,3.16,2.2,5.01c0.39-0.05,0.61,0.39,0.99,0.83
							c0.61,1.31,5.83,9.82,6.09,10.94c0.09,0.24-3.07-3.5-5.92-7.34c-3.03-3.84-4.45-7.83-4.54-7.68
							c-0.09,0.24,0.78,3.06,2.55,5.74c1.69,2.72,3.85,5.4,4.11,5.88c-3.89-4.33-6.87-7.92-8.08-11.57
							c-1.21-3.65-1.34-6.85-1.6-9.09c-0.26-4.57,0.04-5.83-0.22-5.01c-0.17,0.83-0.43,3.79-0.04,7.34
							c0.26,3.6,1.17,7.97,3.24,10.84c0.95,2.04,3.16,4.28,5.79,7.73c-1.82-1.8-5.75-5.3-6.4-6.46c-1.64-2.48-2.25-3.74-2.77-5.05
							c-0.52-1.36-0.91-3.01-0.99-6.51c-0.09-2.77-0.22-7,0.52-10.94c0.69-3.94,2.12-7.63,3.33-9.87
							c-0.99,2.67-2.07,8.85-2.77,12.49c1.17-3.94,1.64-6.17,2.2-8.6c0.61-2.38,1.3-4.96,4.06-8.21c0.52-0.58,1.04-1.36,1.6-2.19
							c0.69-0.63,1.38-1.17,2.25-1.85c5.01-4.52,9.85-8.07,15.9-10.06c-0.52,0.24-0.95-0.1-1.51,0.05
							c-5.45,1.36-9.34,4.71-14.05,8.55c-0.95,0.68-1.77,2.38-2.59,3.31c-1.73,1.9-3.41,3.45-4.97,5.4
							c2.25-4.62,6.44-8.75,10.46-11.81c0.82-0.68,1.64-1.8,2.25-2.43c-2.03,1.22-3.93,2.67-5.79,4.28
							c-3.2,2.87-6.18,7.19-8.21,11.62c-2.12,4.42-3.24,8.94-4.28,12.15c0,0.19,0,0.39,0,0.83c-0.04,0.1-0.09,0.24-0.13,0.39
							c-0.13,1.31-0.3,2.87-0.56,4.33c0.04-1.22,0.13-2.43,0.3-3.65c-0.13-4.86,1.3-10.06,3.76-14.53
							c2.46-4.47,5.75-8.31,9.16-11.57c1.47-1.6,4.58-2.96,6.18-4.18c4.84-3.55,10.68-5.64,16.34-6.27
							c10.16-1.36,20.31,0.19,29.35,4.33c8.99,4.08,16.94,11.13,21,20.07c0.26,0.39,0.48,0.73,0.69,1.12l-0.09-0.73
							c0.17,0.39,0.26,0.83,0.43,1.26c1.17,2.14,1.99,4.52,2.16,7c0,1.02-0.48-1.65-1.04-2.24c0.13,0.53,0.22,1.02,0.22,1.02
							s-0.22-0.05-0.39-0.05c0.22,0.34,0.04,0.68,0,0.97c-1.34-4.86-4.19-9.23-7.61-12.93c0.09,0.83,1.12,1.85,1.51,2.43
							c1.12,1.22,2.16,2.48,2.81,3.89c2.29,3.6,2.81,8.21,2.85,12.01c-0.04,0.73-0.26,1.46-0.39,2.09
							C343.83,179.13,343.31,177.19,343.35,175.92z M298.36,139.52c1.51,0.1,2.98,0.34,4.45,0.63c0.52,0.05,1.04,0.05,1.56,0.1
							c0.65,0.05,1.34,0.05,2.07,0c2.77,0.44,5.49,1.07,8.17,1.9c-2.59-1.31-5.45-2.33-8.99-2.62c9.21,0.34,16.73,4.42,23.3,9.53
							c2.07,1.41,4.11,2.92,6.01,4.62c1.38,1.22,2.72,2.33,3.98,3.6c-6.87-9.09-17.24-15.26-28.44-17.74
							c-11.15-2.43-23.6-1.41-34.58,5.25C283.23,141.17,290.71,139.42,298.36,139.52z M295.68,140.49
							c-2.98,0.39-5.88,1.17-8.69,2.19c-7.74,2.38-15.47,8.02-18.11,13.22c4.58-5.93,10.93-10.6,18.11-13.22
							c-3.41,1.22-3.85,1.51-2.33,0.92c1.51-0.58,5.06-1.9,9.77-2.82C294.64,140.68,295.12,140.59,295.68,140.49z"/>
						<path d="M336.91,152.11c2.2,2.77,4.19,5.74,5.53,8.94c-0.26-1.41-0.56-2.72-1.25-4.23c-1.99-3.99-5.66-7.19-9.03-10.06
							c-9.9-8.46-23.68-12.05-37.17-10.06c-0.69,0.05-2.16,0.24-3.24,0.68c8.56-1.41,16.9-0.78,24.68,1.65
							C324.25,141.41,331.47,145.79,336.91,152.11z"/>
						<path d="M270.87,146.18c-2.07,1.85-3.98,3.89-5.79,5.93c1.9-1.56,4.28-3.74,6.35-5.3c2.81-2.33,5.79-4.28,8.9-5.83
							C277.09,142.19,273.9,143.84,270.87,146.18z"/>
						<path d="M291.79,137.33c-0.69,0.1-1.38,0.24-2.03,0.39c-3.16,0.63-6.35,1.75-9.42,3.26c3.41-1.26,6.83-1.99,10.29-2.58
							C290.54,138.01,291.05,137.62,291.79,137.33z"/>
					</g>
				</g>
			</g>
		</g>
	</g>
</g>
<g>
	<g>
		<g>
			<g>
				<g class="st0">
					<g>
						<path d="M630.95,136.56c4.25-1,8.06-1.84,12.09-2.69c6.25-1.19,12.1-0.59,18.75,0.27c3.31,0.52,6.35,1.1,9.53,1.91
							c6.25,2.23,12.7,5.66,18.69,10.05c0.59,0.55,2.28,2.19,2.62,1.34c5.38,4.96,9.49,10.66,13.81,16.02
							c1.75,2.34,2.81,5.31,4.3,7.84c2.6,4.05,3.74,8.74,5.19,13.2c0.33,0.6,1.12,1.84,1.17,2.4c0.44,3.31,0.92,6.57,1.14,9.75
							c0.21,3.17,0.3,6.59-0.77,10.03c-0.87,2.64-1.93,4.82-3.92,6.79c0.1,0.47-0.47,0.9-0.99,1.52c-0.74,0.81-3.9,2.58-6.91,3.12
							c-3.01,0.64-5.78,0.38-6.23,0.21c-0.27-0.18,4.71-0.26,9.32-2.9c2.28-1.32,4.19-3.29,5.31-4.95c1.12-1.67,1.48-2.89,1.4-2.84
							c-0.22,0.15-1.7,3.36-4.49,5.63c-2.7,2.36-6.15,3.24-6.64,3.35c5.65-2.01,8.92-6.45,10.07-9.98c1.15-3.63,1.13-6.48,1.03-8.44
							c-0.28-4.01-0.75-5.03-0.64-4.33c0.03,1.26,1.37,10.25-2.75,16.25c-1.38,1.58-3.5,4.2-7.52,5.48
							c1.14-0.54,2.77-1.57,3.93-2.86c1.22-1.2,1.98-2.53,2.33-2.96c1.46-2.09,1.56-3.27,1.89-4.35c0.19-1.13,0.65-2.26,1.12-5.08
							c0.39-2.3,0.17-5.66-0.44-8.64c-0.83-2.97-2.02-5.79-2.78-7.65c1.33,1.7,4.16,6.16,4.11,9.44c0.18-3.51-0.98-5.35-1.92-7.11
							c-1.07-1.75-2.18-3.45-3.51-6.74c-0.28-0.6-0.66-1.25-1.12-1.94c-0.29-0.74-0.53-1.44-0.86-2.32
							c-2.72-5.22-6.15-9.06-9.56-13.6c0.32,0.37,0.2,0.88,0.48,1.3c2.47,4.29,5.57,7.15,7.91,11.82c0.38,0.93,1.56,1.83,2.03,2.8
							c0.98,1.94,1.34,3.85,1.79,5.8c-1.82-3.46-3.76-7.67-6.07-11.26c-0.51-0.74-1.46-1.37-2.01-1.82
							c1.02,1.66,2.04,3.32,2.98,5.02c1.72,2.95,3.85,6.26,5.32,9.69c1.47,3.42,2.4,6.72,1.88,9.07c0.05,0.14,0.05,0.28,0.15,0.56
							c-0.04,0.09-0.08,0.19-0.08,0.28c0.07,0.93-0.04,2.01-0.37,3c0.02-0.84,0.14-1.64,0.16-2.48c-1.27-6.14-3.42-13.76-7.46-20.06
							c-0.92-1.33-1.8-4.07-2.9-5.35c-3.22-4.13-5.57-7.15-9.11-11.69c-5.6-6.78-12.56-12.4-20.79-15.75
							c-8.19-3.44-17.35-4.8-26.43-4.66c-0.4,0.06-0.84,0.16-1.24,0.22l0.58,0.17c-0.4-0.04-0.8-0.03-1.2-0.06
							c-2.31,0.34-4.52,0.86-6.84,0.83c-0.98-0.12,1.59-0.37,2.25-0.85c-0.53,0.06-1.02,0.12-1.02,0.12s0.04-0.19,0.12-0.42
							c-0.35,0.2-0.67,0.02-0.94-0.07c4.95-1.25,10.1-2.08,15.3-2.45c-0.63-0.45-2.19-0.22-2.9-0.25c-1.73,0.23-3.41,0.6-5.01,0.69
							c-4.3,0.76-8.93,0.93-13.09,1.88c-0.8,0.07-1.6,0.13-2.4,0.11C627.64,137.96,629.35,136.84,630.95,136.56z M690.41,153.29
							c-0.78-0.96-1.75-2.15-2.67-3.3c-0.36-0.32-0.77-0.64-1.14-0.95c-0.46-0.41-1-0.77-1.63-1.08c-2.05-1.68-4.22-3.26-6.53-4.7
							c2.14,1.86,4.23,3.68,6.82,5.72c-6.93-4.73-13.28-9.06-21.3-11.38c-2.42-0.59-4.92-0.76-7.46-0.93
							c-1.78,0.05-3.56,0.04-5.29,0.32c10.96,0.33,21.69,3.66,30.17,9.89c8.53,6.19,15.02,14.54,20.64,23.65
							C698.97,164.15,695.09,158.64,690.41,153.29z M692.67,154.59c2.01,2.01,3.93,4.02,5.72,6.12c4.78,5.91,8.88,13.01,12.05,17
							c-3.27-5.95-7.42-11.6-12.05-17c2.12,2.66,2.35,3.07,1.47,1.83c-0.92-1.24-3.04-3.99-6.28-7.18
							C693.4,155.22,693.08,154.95,692.67,154.59z"/>
						<path d="M655.77,139.2c-3.09-0.67-6.3-0.92-9.51-1.21c1.26,0.39,2.38,0.92,3.77,1.21c3.8,0.65,7.94,0.78,11.75,1.71
							c10.85,2.86,20.52,8.41,28.6,16.48c0.41,0.41,1.19,1.37,1.96,1.91C683.02,148.1,670.43,141.4,655.77,139.2z"/>
						<path d="M702.71,174.91c1.16,1.75,2.27,3.54,3.07,5.35c-0.36-1.86-1.44-4.13-2.46-5.88c-1.49-2.44-3.15-4.78-4.81-7.08
							C700.1,170.11,701.45,172.6,702.71,174.91z"/>
						<path d="M692.34,159.37c0.37,0.46,0.73,0.87,1.15,1.33c1.66,2.06,3.36,4.31,5.02,6.56c-1.49-2.63-3.03-5.25-4.87-7.64
							C693.38,159.95,692.89,159.77,692.34,159.37z"/>
					</g>
				</g>
			</g>
		</g>
	</g>
</g>
<g>
	<g>
		<g>
			<g>
				<g class="st0">
					<g>
						<path d="M470.48,150.13c4.12,3,8.55,4.81,13.24,5.89c7.18,1.76,14,3.57,22.04,3.17c3.97-0.17,7.64-0.85,11.35-1.98
							c7.53-1.64,15.93-5.66,21.18-12.97c0.66-0.68,2.29-3,1.27-3.28c2.19-3.51,3.41-7.59,3.21-11.78
							c-0.2-4.19-1.83-8.32-4.48-11.55c-2.09-2.77-4.28-6.12-7.33-8.27c-4.89-3.17-9.88-6.68-15.53-8.27
							c-0.81-0.11-2.6,0.06-3.26-0.17c-7.64-2.89-15.32-1.42-22.45,0.17c-2.85,0.57-4.99,1.3-7.64,1.93
							c-0.15,0.51-0.76,0.62-1.48,1.02c-0.97,0.28-4.28,1.08-7.38,2.21c-3.11,1.08-5.96,2.49-6.57,2.55
							c-0.31,0.06,4.43-3.51,9.93-5.72c5.45-2.32,11.3-3.34,11.05-3.62c-0.31-0.11-4.17,0.51-8.04,1.81
							c-3.87,1.19-7.58,3.11-8.2,3.34c6.11-3.85,11.81-5.78,16.44-7.02c4.63-1.19,8.3-1.64,10.94-1.93
							c5.35-0.45,6.82-0.34,5.85-0.51c-1.93-0.4-13.74-0.06-22.14,3.28c-2.7,0.62-6.31,2.43-11.1,4.87c2.6-1.93,8.4-5.66,9.98-6.06
							c6.87-2.32,5.75-2.89,14.05-3.4c3.41-0.11,8.04-0.28,12.57,0.06c4.53,0.28,9.01,1.08,11.91,1.93
							c-3.21-0.34-10.44-0.28-14.76-0.79c4.73,1.02,7.43,1.13,10.28,1.25c2.85,0.17,5.91,0.28,10.59,2.66
							c0.92,0.4,1.93,0.85,3.11,1.3c0.97,0.68,1.88,1.36,3,2.27c7.13,4.98,13.74,10.82,16.39,20.78c-0.31-0.79,0.05-1.53-0.2-2.38
							c-2.39-8.72-8.15-13.48-14.46-18.35c-1.22-1.08-3.36-1.47-4.73-2.27c-2.85-1.59-5.24-3.23-7.99-4.59
							c5.8,1.42,12.27,5.1,17.51,9.74c1.12,0.91,2.7,1.81,3.67,2.49c-2.24-2.55-4.68-4.76-7.33-6.63
							c-4.63-3.23-10.54-5.44-16.09-6.74c-5.55-1.36-10.69-1.93-14.36-3c-0.2,0-0.46,0.06-0.92,0.06c-0.1-0.06-0.25-0.11-0.41-0.17
							c-1.43-0.11-3.16-0.23-4.73-0.62c1.32,0.06,2.65,0.11,4.02,0.28c10.59-1.02,22.65,3.11,32.94,9.91
							c2.39,1.36,5.4,5.21,7.38,7.3c2.95,3.06,5.6,6.97,7.18,11.55c1.63,4.59,2.09,9.8,1.22,14.55
							c-1.37,8.72-6.31,15.63-11.76,20.22c-5.55,4.64-11.81,7.47-18.07,9.17c-12.62,3.28-25.66,2.27-37.06-2.04
							c-0.56-0.11-1.12-0.28-1.63-0.4l0.61,0.51c-0.46-0.23-0.97-0.45-1.48-0.74c-3-0.85-5.85-2.1-8.35-3.91
							c-0.97-0.85,1.99,0.91,3,0.85c-0.61-0.34-1.22-0.68-1.22-0.68s0.2-0.17,0.41-0.34c-0.51-0.11-0.71-0.51-0.97-0.79
							c5.96,2.72,12.42,4.25,18.99,4.87c-0.71-0.68-2.65-0.79-3.56-1.02c-2.19-0.17-4.33-0.45-6.21-1.19
							c-5.4-1.25-10.38-4.59-14.51-7.64c-0.71-0.68-1.37-1.42-1.99-2.15C466.76,148.09,469.05,149,470.48,150.13z M546.43,142.03
							c-1.12,1.98-2.49,3.68-4.02,5.21c-0.46,0.57-0.97,1.19-1.48,1.76c-0.66,0.68-1.27,1.47-1.93,2.27
							c-2.95,2.6-6.21,4.64-9.62,6.23c3.61-1.13,7.38-2.89,10.94-6.57c-4.48,4.93-9.82,7.7-15.12,9.34s-10.64,2.21-15.98,2.32
							c-3.21,0.28-6.52,0.4-9.82,0.28c-2.34,0-4.63-0.06-6.92-0.17c14.05,2.66,29.53,1.87,43.07-6.74
							c6.57-4.3,12.88-11.38,14.56-21.29c1.83-9.85-2.24-20.27-8.3-26.9c3.61,4.76,6.41,10.36,7.38,16.59
							C550.3,130.48,549.23,136.88,546.43,142.03z M547.19,137.78c1.22-4.47,1.22-9.29,0.05-13.7c-1.48-6.06-4.99-11.5-8.96-15.18
							c-3.97-3.79-8.25-6-11.61-6.97c4.28,1.93,8.45,4.59,12.17,8.21c3.67,3.57,6.87,8.27,8.4,13.93c-1.53-5.32-2.19-5.83-1.17-3.62
							c0.81,2.21,2.85,7.93,1.53,15.35C547.55,136.2,547.45,136.93,547.19,137.78z"/>
						<path d="M498.42,165.93c-4.33-0.85-8.6-1.98-12.57-3.68c1.43,1.02,2.75,1.93,4.63,2.77c5.04,1.93,11.1,2.15,16.75,2.27
							c8.14,0.17,16.7-1.36,24.79-5.61c7.89-4.19,16.09-11.38,19.19-22.93c0.36-1.08,0.92-3.62,0.81-5.61
							c-0.76,7.53-4.23,13.99-8.4,18.63c-4.23,4.7-9.11,7.93-14.15,10.19C519.35,166.55,508.66,167.51,498.42,165.93z"/>
						<path d="M537.98,101.32c-3-2.15-6.11-3.91-9.06-5.55c2.49,1.87,6.01,4.25,8.65,6.46c3.82,3.06,7.43,6.74,10.13,11.44
							C545.36,108.79,542,104.66,537.98,101.32z"/>
						<path d="M552.03,133.14c0.15-1.19,0.15-2.38,0.2-3.62c0-5.61-1.73-11.27-4.48-15.86c2.55,5.15,3.87,11.16,3.51,17.1
							C551.72,130.76,552.03,131.78,552.03,133.14z"/>
					</g>
				</g>
			</g>
		</g>
	</g>
</g>
</svg>
