<?xml version="1.0" encoding="utf-8"?>
<!-- Generator: Adobe Illustrator 28.2.0, SVG Export Plug-In . SVG Version: 6.00 Build 0)  -->
<svg version="1.1" id="Layer_1" xmlns="http://www.w3.org/2000/svg" xmlns:xlink="http://www.w3.org/1999/xlink" x="0px" y="0px"
	 viewBox="0 0 100 100" style="enable-background:new 0 0 100 100;" xml:space="preserve">
<style type="text/css">
	.st0{fill:none;stroke:#000000;stroke-width:2;stroke-miterlimit:10;}
</style>
<path class="st0" d="M285.36,30.08c-88,1.22-156.9,7.66-166.34,15.71H89.91c0-7.4-6.03-13.41-13.44-13.41
	c-3.11,0-5.97,1.05-8.25,2.83c-4.4-5.55-11.21-9.1-18.85-9.1c-3.59,0-7,0.79-10.06,2.2c3.82,1.09,6.55,4.76,6.14,9.01
	c-0.39,4.06-3.78,7.35-7.85,7.64c-4.46,0.32-8.25-2.78-9.01-6.94c-2.08,3.55-3.27,7.67-3.27,12.08c0,7.98,3.91,15.06,9.92,19.42
	c-2.28,2.4-3.67,5.63-3.67,9.2c0,7.41,6.02,13.41,13.44,13.41v95.44c6.22,38.45,10.75,93.46,12.55,156.76
	c3.52-5.65,7.57-8.89,11.88-8.89c4.18,0,8.12,3.03,11.56,8.37V93.67c-7.34,1.95-15.65-0.86-20.13-8.49
	c-3.13-5.33-3.29-12.03-0.34-17.46C66.66,56.46,80.9,55,89.13,63.32c4.94,5,6.38,12.18,4.34,18.47h141.22c0,0,0,0,0,0
	c0-8.71,27.18-15.98,63.43-17.73c0.86-2.48,2.25-4.82,4.21-6.8c3.5-3.54,8.09-5.31,12.67-5.31V11.76
	C301.93,11.95,290.66,19.37,285.36,30.08z"/>
</svg>
