<?xml version="1.0" encoding="utf-8"?>
<!-- Generator: Adobe Illustrator 28.2.0, SVG Export Plug-In . SVG Version: 6.00 Build 0)  -->
<svg version="1.1" id="Layer_1" xmlns="http://www.w3.org/2000/svg" xmlns:xlink="http://www.w3.org/1999/xlink" x="0px" y="0px"
	 viewBox="0 0 432 100" style="enable-background:new 0 0 432 100;" xml:space="preserve">
<style type="text/css">
	.st0{fill:none;stroke:#000000;stroke-width:2;stroke-miterlimit:10;}
</style>
<path class="st0" d="M412.89,46.23c-9.46-7.96-78.47-14.35-166.63-15.56c-5.38-10.74-16.89-18.16-30.22-18.16
	s-24.84,7.42-30.22,18.16c-88.17,1.21-157.2,7.59-166.66,15.56h-29.21c0-7.4-6.01-13.41-13.41-13.41c-3.1,0-5.96,1.05-8.23,2.83
	c-4.39-5.55-11.18-9.1-18.8-9.1c-3.58,0-6.98,0.79-10.03,2.2c3.56,1.02,6.17,4.29,6.17,8.17c0,4.7-3.81,8.5-8.5,8.5
	c-4.17,0-7.63-3-8.36-6.96c-2.07,3.55-3.26,7.67-3.26,12.08c0,7.98,3.9,15.06,9.9,19.42c-2.27,2.4-3.66,5.63-3.66,9.2
	c0,7.41,6,13.41,13.41,13.41v95.44c6.2,38.45,10.72,93.46,12.52,156.76c3.51-5.65,7.55-8.89,11.85-8.89c4.17,0,8.1,3.03,11.53,8.37
	V93.64c-5.97,1.57-12.59,0.03-17.27-4.65c-7.01-7.01-7.01-18.38,0-25.4c7.01-7.01,18.38-7.01,25.4,0
	c4.95,4.95,6.39,12.06,4.35,18.29h141.49c0,0,0,0,0,0c0-8.62,27.24-15.82,63.55-17.56c0.86-2.46,2.26-4.77,4.22-6.73
	c7.01-7.01,18.38-7.01,25.4,0c1.96,1.96,3.36,4.28,4.22,6.73C268.77,66.06,296,73.26,296,81.88c0,0,0,0,0,0h153.97V730.6H-18.92
	V468.34c-3.43,5.34-7.36,8.37-11.53,8.37c-4.3,0-8.34-3.23-11.85-8.88c-1.8,63.37-6.32,118.43-12.53,156.92v141.78h540.71V46.23
	H412.89z"/>
</svg>
